<svg width="114" height="32" viewBox="0 0 114 32" fill="none" xmlns="http://www.w3.org/2000/svg">
<path fill-rule="evenodd" clip-rule="evenodd" d="M22.8018 28.8644H17.4364V28.0519C16.7662 28.3227 15.9613 28.4581 15.2904 28.7292C14.4855 28.8645 13.8152 29 13.0104 29C11.2666 29 9.52266 28.7292 8.0476 28.0522C6.43757 27.3751 5.09633 26.427 4.02385 25.2079C2.81685 23.9893 2.01235 22.6353 1.20699 21.1459C0.413606 19.5466 0.000517117 17.7854 0 16C0.0013239 14.8149 0.136213 13.6337 0.402108 12.4789C0.670181 11.3957 1.20699 10.3125 1.74314 9.36464C2.27928 8.41676 2.9508 7.60443 3.75463 6.792C4.55847 5.97957 5.3644 5.30193 6.30332 4.76021C7.24224 4.2185 8.31481 3.81243 9.38824 3.40617C10.5314 3.13762 11.7017 3.00134 12.8759 3C14.6745 3.0061 16.4535 3.3745 18.1068 4.08324C19.7166 4.7605 21.0577 5.84345 22.2647 7.06271L18.1068 11.2598C17.4359 10.5826 16.6316 9.90578 15.8267 9.49962C14.8878 9.09345 13.9487 8.82236 12.8759 8.82236C12.071 8.95771 11.2661 9.09317 10.5952 9.36397C9.92439 9.63478 9.25421 10.0412 8.58374 10.4472C7.91328 10.8532 7.51078 11.395 7.10868 12.0721C6.70657 12.7491 6.43783 13.4266 6.16976 14.1039H22.8018V28.8644ZM17.3022 19.2496H6.706C7.24281 20.3334 8.18173 21.2814 9.25468 21.9587C10.3331 22.66 11.5903 23.036 12.8764 23.0419C13.6979 23.0391 14.5133 22.9019 15.2905 22.6357C16.0477 22.3939 16.7369 21.9764 17.302 21.4171L17.3022 19.2496Z" fill="#34DB8A"/>
<path fill-rule="evenodd" clip-rule="evenodd" d="M56.5633 28.9996H26.8676L28.3459 26.4263L41.6482 3L55.085 26.2909L56.5633 28.9996ZM41.6482 13.4272L35.7362 23.8537H47.5607L41.6482 13.4272Z" fill="#34DB8A"/>
<path fill-rule="evenodd" clip-rule="evenodd" d="M80.416 28.8645H74.3557L68.8344 19.4349L66.0061 22.1288V28.9992H60.6185V3H80.0119V8.38795L72.7391 15.6629L80.416 28.8645ZM72.8738 8.38824H66.1403V15.2585L72.8738 8.38824Z" fill="#34DB8A"/>
<path fill-rule="evenodd" clip-rule="evenodd" d="M114 28.8223H84.3042L85.7825 26.2669L99.0848 3L112.522 26.1328L114 28.8223ZM99.0848 13.3559L93.1728 23.7115H104.997L99.0848 13.3559Z" fill="#34DB8A"/>
</svg>
