<svg width="29" height="29" viewBox="0 0 29 29" fill="none" xmlns="http://www.w3.org/2000/svg">
<rect width="29" height="29" rx="4" fill="#1C1D2E"/>
<path fill-rule="evenodd" clip-rule="evenodd" d="M10.8383 9.16329H7.26292C7.4439 9.50751 7.76027 9.80837 8.12223 10.0238C8.48419 10.2393 8.89173 10.3681 9.34349 10.3681C9.61427 10.3681 9.88642 10.3247 10.1572 10.2393C10.4294 10.1539 10.6545 10.0238 10.8355 9.85172V9.16329H10.8383ZM12.6937 7.57094V12.2179H10.8839V11.9591C10.6573 12.0458 10.3865 12.0878 10.16 12.1745C9.88919 12.2179 9.66262 12.2613 9.39046 12.2613C8.80193 12.2613 8.21479 12.1745 7.71606 11.9604C7.17313 11.7449 6.71999 11.4441 6.35803 11.0565C5.95048 10.6689 5.67971 10.2393 5.40755 9.76633C5.13677 9.25 5 8.69031 5 8.13194C5 7.74437 5.04559 7.40015 5.13539 7.01257C5.22519 6.66835 5.40617 6.32413 5.58714 6.02327C5.76812 5.72241 5.99469 5.46358 6.26547 5.20608C6.53763 4.94857 6.80841 4.7331 7.12477 4.56099C7.44114 4.38888 7.8031 4.26013 8.16505 4.13138C8.5726 4.04598 8.93456 4.00262 9.34211 4.00262C9.97484 4.00262 10.5634 4.13138 11.1063 4.34684C11.6492 4.56231 12.1024 4.90653 12.5085 5.29279L11.1063 6.62631C10.8797 6.41084 10.609 6.19669 10.3368 6.06663C10.0204 5.93787 9.70268 5.85116 9.34073 5.85116C9.06857 5.89452 8.79779 5.93656 8.57122 6.02327C8.34465 6.10867 8.11808 6.23873 7.8929 6.36749C7.66633 6.49624 7.53094 6.66835 7.39555 6.88382C7.26016 7.09928 7.16898 7.31344 7.07918 7.5289H12.6895V7.57226L12.6937 7.57094Z" fill="#34DB8A"/>
<path fill-rule="evenodd" clip-rule="evenodd" d="M18.9796 7.31344L16.9888 10.6269H20.969L18.9782 7.31344H18.9796ZM24 12.2613H14.0033L14.5007 11.4441L18.9782 4L23.5013 11.4007L23.9986 12.2613H24Z" fill="#34DB8A"/>
<path fill-rule="evenodd" clip-rule="evenodd" d="M10.1945 15.6194H7.93296V17.8108L10.1945 15.6194ZM10.6919 22.1503L8.83785 19.143L7.88875 20.0023V22.1937H6.08035V13.9009H12.5928V15.6194L10.1503 17.9396L12.7282 22.1503H10.6919Z" fill="#34DB8A"/>
<path fill-rule="evenodd" clip-rule="evenodd" d="M18.9796 17.2143L16.9888 20.5278H20.969L18.9782 17.2143H18.9796ZM24 22.1622H14.0033L14.5007 21.345L18.9782 13.9009L23.5013 21.3016L23.9986 22.1622H24Z" fill="#34DB8A"/>
<path d="M13.0087 23.8806H5.49873V25H13.0087V23.8806Z" fill="white"/>
</svg>
