<svg width="228" height="228" viewBox="0 0 228 228" fill="none" xmlns="http://www.w3.org/2000/svg">
<path d="M228 114C228 176.96 176.96 228 114 228C51.0395 228 0 176.96 0 114C0 51.0395 51.0395 0 114 0C176.96 0 228 51.0395 228 114Z" fill="#34DB8A"/>
<path d="M70.418 78.5092C91.9645 78.5092 109.494 96.0387 109.494 117.585V125.33H118.741V117.585C118.741 96.0387 136.271 78.5092 157.817 78.5092H165.184C163.171 67.6446 157.767 57.9564 150.113 50.5879L114.118 86.5831L78.1225 50.5879C70.4683 57.9567 65.064 67.6446 63.0518 78.5092H70.418Z" fill="#186841"/>
<path d="M114.117 73.1741L142.665 44.6264C135.711 40.0327 127.594 37.0667 118.858 36.2725V56.2804H109.377V36.2725C100.64 37.0667 92.5235 40.0327 85.5693 44.6264L114.117 73.1741Z" fill="#186841"/>
<path d="M157.817 87.9902C141.499 87.9902 128.222 101.266 128.222 117.585V125.33H132.846V134.811H95.389V125.33H100.013V117.585C100.013 101.266 86.7365 87.9902 70.418 87.9902H62.1816V112.783C62.1816 147.641 81.2165 179.62 111.858 196.24L114.118 197.466L116.378 196.24C147.019 179.62 166.054 147.641 166.054 112.783V87.9902H157.817ZM141.086 103.48H156.693V112.961H141.086V103.48ZM94.2927 159.815C94.3765 159.678 96.3805 156.407 99.5835 153.151C104.296 148.36 109.186 145.931 114.118 145.931C119.049 145.931 123.939 148.36 128.651 153.151C131.855 156.407 133.859 159.678 133.942 159.815L135.442 162.279L133.942 164.743C133.858 164.881 131.855 168.152 128.651 171.407C123.939 176.198 119.049 178.627 114.118 178.627C109.186 178.627 104.296 176.198 99.5835 171.407C96.3805 168.152 94.3765 164.881 94.2927 164.743L92.7934 162.279L94.2927 159.815ZM71.5418 103.48H87.1489V112.961H71.5418V103.48Z" fill="#186841"/>
<path d="M114.117 169.146C117.645 169.146 121.611 165.398 124.088 162.289C121.726 159.319 117.791 155.412 114.117 155.412C110.589 155.412 106.623 159.161 104.146 162.27C106.505 165.237 110.442 169.146 114.117 169.146Z" fill="#186841"/>
</svg>
