<svg width="12" height="13" viewBox="0 0 12 13" fill="none" xmlns="http://www.w3.org/2000/svg">
<path d="M2.83372 4.42232H9.04772V9.20332C9.04772 9.72632 8.76772 10.0023 8.24372 10.0033H7.85972C7.85972 10.5563 7.86572 11.0943 7.85772 11.6333C7.85036 11.7963 7.78219 11.9505 7.66668 12.0657C7.55116 12.1808 7.39668 12.2485 7.23372 12.2553C6.87872 12.2683 6.55372 12.0223 6.54172 11.6813C6.52172 11.1313 6.53572 10.5783 6.53572 10.0143H5.34572V10.6713C5.34372 10.9943 5.35072 11.3173 5.33972 11.6403C5.33226 11.7926 5.27145 11.9373 5.16797 12.0492C5.06448 12.1611 4.92491 12.233 4.77372 12.2523C4.61875 12.2742 4.46102 12.2407 4.32837 12.1576C4.19572 12.0746 4.09668 11.9473 4.04872 11.7983C4.027 11.7294 4.01555 11.6576 4.01472 11.5853C4.01172 11.1263 4.01272 10.6683 4.01372 10.2093C4.01372 10.1463 4.02372 10.0833 4.03172 10.0023H3.57472C3.12572 9.99932 2.83472 9.70832 2.83372 9.25832V4.42232ZM9.05072 3.96432H2.82972C2.88772 2.88832 3.49972 2.21932 4.40672 1.74432L4.13372 1.33332L3.93572 1.03532C3.88972 0.965319 3.81572 0.885319 3.91872 0.815319C4.02872 0.741319 4.07372 0.846319 4.12272 0.918319C4.23972 1.09032 4.35472 1.26332 4.46972 1.43632C4.61172 1.65032 4.61172 1.65032 4.85672 1.57832C5.61425 1.34967 6.42477 1.36718 7.17172 1.62832C7.19972 1.63832 7.22772 1.64532 7.26372 1.65632L7.73772 0.947319L7.79372 0.863319C7.83872 0.799319 7.89472 0.765319 7.96572 0.817319C8.02972 0.865319 8.01872 0.925319 7.97872 0.986319L7.56872 1.60032L7.47372 1.74532C8.37772 2.21532 8.99372 2.88432 9.05072 3.96432ZM7.60472 2.75432C7.60422 2.66649 7.56944 2.58232 7.5078 2.51975C7.44617 2.45718 7.36253 2.42114 7.27472 2.41932C7.23122 2.41892 7.18806 2.42713 7.14774 2.44348C7.10742 2.45982 7.07074 2.48398 7.03979 2.51455C7.00884 2.54513 6.98424 2.58153 6.96741 2.62164C6.95058 2.66176 6.94185 2.70481 6.94172 2.74832C6.94064 2.79179 6.94833 2.83503 6.96432 2.87547C6.98031 2.91591 7.00427 2.95271 7.03479 2.98369C7.0653 3.01467 7.10174 3.03919 7.14193 3.05579C7.18212 3.07239 7.22524 3.08073 7.26872 3.08032C7.31222 3.08111 7.35545 3.0733 7.39593 3.05732C7.4364 3.04134 7.47331 3.01752 7.50454 2.98722C7.53577 2.95692 7.56069 2.92074 7.57789 2.88077C7.59508 2.8408 7.6042 2.79783 7.60472 2.75432ZM4.93772 2.74632C4.93733 2.70281 4.92834 2.65981 4.91127 2.61979C4.89419 2.57977 4.86938 2.54352 4.83824 2.51313C4.80711 2.48274 4.77027 2.45881 4.72985 2.44271C4.68943 2.42661 4.64622 2.41866 4.60272 2.41932C4.51517 2.42217 4.43214 2.4589 4.37114 2.52176C4.31014 2.58463 4.27593 2.66872 4.27572 2.75632C4.27756 2.84394 4.31407 2.92725 4.37724 2.98798C4.44042 3.04872 4.5251 3.08193 4.61272 3.08032C4.65621 3.08047 4.69928 3.07187 4.73937 3.05503C4.77946 3.03818 4.81576 3.01344 4.84608 2.98227C4.87641 2.95111 4.90015 2.91415 4.9159 2.87362C4.93164 2.83308 4.93906 2.78979 4.93772 2.74632ZM10.8217 6.50632V7.89332C10.8197 8.30032 10.5397 8.59432 10.1577 8.59332C9.77572 8.59332 9.49272 8.29832 9.49272 7.89332C9.49272 6.95532 9.49072 6.01832 9.49272 5.08032C9.49137 4.91727 9.55088 4.75957 9.65962 4.63807C9.76836 4.51657 9.91852 4.43999 10.0807 4.42332C10.2447 4.40273 10.4104 4.44459 10.5449 4.54056C10.6794 4.63653 10.7729 4.77959 10.8067 4.94132C10.8207 5.00732 10.8207 5.07632 10.8207 5.14432L10.8217 6.50632ZM2.38472 6.50632C2.38472 6.99032 2.38872 7.47332 2.38272 7.95732C2.37956 8.10081 2.32914 8.23926 2.23928 8.35117C2.14942 8.46309 2.02514 8.54223 1.88572 8.57632C1.74916 8.61233 1.60458 8.60281 1.47392 8.54921C1.34326 8.49561 1.23365 8.40086 1.16172 8.27932C1.10046 8.17353 1.0658 8.05446 1.06072 7.93232C1.05272 6.98232 1.05372 6.03132 1.05772 5.08032C1.05719 4.99307 1.07401 4.90658 1.10722 4.82589C1.14042 4.7452 1.18934 4.67192 1.25113 4.61031C1.31292 4.54871 1.38635 4.50001 1.46714 4.46705C1.54793 4.43409 1.63447 4.41752 1.72172 4.41832C2.09172 4.41832 2.37972 4.70132 2.38472 5.08032C2.38972 5.55532 2.38472 6.03032 2.38472 6.50632Z" fill="#B2B2B2"/>
</svg>
