<svg width="24" height="25" viewBox="0 0 24 25" fill="none" xmlns="http://www.w3.org/2000/svg">
<circle cx="12" cy="12.5" r="12" fill="#28293D"/>
<path fill-rule="evenodd" clip-rule="evenodd" d="M11.611 8.29232C11.135 7.89932 10.382 7.90375 9.90376 8.29859C9.65046 8.50771 9.5 8.8048 9.5 9.12611C9.5 9.44743 9.65046 9.74451 9.90376 9.95364L12.3828 12.0004L9.90376 14.0472C9.65046 14.2563 9.5 14.5534 9.5 14.8747C9.5 15.196 9.65046 15.4931 9.90376 15.7022C10.3847 16.0993 11.1301 16.0993 11.611 15.7022L15.0962 12.8248C15.3495 12.6157 15.5 12.3186 15.5 11.9973C15.5 11.6759 15.3495 11.3789 15.0962 11.1697L11.611 8.29232Z" fill="#34DB8A"/>
</svg>
