<svg width="12" height="13" viewBox="0 0 12 13" fill="none" xmlns="http://www.w3.org/2000/svg">
<path d="M8.72784 4.05524C7.83961 4.05516 6.9725 4.34267 6.24232 4.87935C5.51214 5.41604 4.95365 6.17636 4.64145 7.05876L5.66345 7.4656C5.9334 6.70482 6.44626 6.06862 7.11272 5.66778C7.77918 5.26693 8.55702 5.12684 9.3108 5.27189C10.0646 5.41693 10.7465 5.83794 11.2379 6.46159C11.7293 7.08524 11.999 7.87203 12 8.68495C12 9.60585 11.6553 10.489 11.0416 11.1402C10.428 11.7914 9.59567 12.1572 8.72784 12.1572H3.27423C2.50158 12.1577 1.75368 11.8681 1.16296 11.3396C0.572251 10.8111 0.176834 10.0778 0.04673 9.26963C-0.0833741 8.46144 0.0602289 7.63046 0.452111 6.92384C0.843994 6.21722 1.45887 5.68055 2.18787 5.40885C2.14116 4.40919 2.44484 3.42657 3.04039 2.65043C3.63593 1.87428 4.48115 1.35957 5.41312 1.20551C6.34509 1.05146 7.2978 1.26897 8.0876 1.81611C8.8774 2.36326 9.44835 3.2013 9.6904 4.16867C9.37448 4.0932 9.05166 4.05516 8.72784 4.05524Z" fill="#B2B2B2"/>
</svg>
