<svg width="32" height="33" viewBox="0 0 32 33" fill="none" xmlns="http://www.w3.org/2000/svg">
<path d="M15.9993 29.8337C8.63555 29.8337 2.66602 23.8641 2.66602 16.5003C2.66602 9.13653 8.63555 3.16699 15.9993 3.16699C23.3631 3.16699 29.3327 9.13653 29.3327 16.5003C29.3327 23.8641 23.3631 29.8337 15.9993 29.8337ZM12.946 26.7235C11.6626 24.0015 10.8758 20.9993 10.7024 17.8337H5.4152C5.94335 22.069 8.95454 25.5333 12.946 26.7235ZM13.3736 17.8337C13.5741 21.0854 14.5031 24.1399 15.9993 26.8363C17.4956 24.1399 18.4245 21.0854 18.6251 17.8337H13.3736ZM26.5835 17.8337H21.2963C21.1229 20.9993 20.3361 24.0015 19.0527 26.7235C23.0441 25.5333 26.0554 22.069 26.5835 17.8337ZM5.4152 15.167H10.7024C10.8758 12.0014 11.6626 8.99909 12.946 6.27707C8.95454 7.46743 5.94335 10.9317 5.4152 15.167ZM13.3736 15.167H18.6251C18.4245 11.9153 17.4956 8.86066 15.9993 6.16431C14.5031 8.86066 13.5741 11.9153 13.3736 15.167ZM19.0527 6.27707C20.3361 8.99909 21.1229 12.0014 21.2963 15.167H26.5835C26.0554 10.9317 23.0441 7.46743 19.0527 6.27707Z" fill="#8F90A6"/>
</svg>
