<svg width="12" height="13" viewBox="0 0 12 13" fill="none" xmlns="http://www.w3.org/2000/svg">
<path d="M5.48511 1.76008C5.69003 1.32346 6.31126 1.32346 6.51618 1.76008L7.5828 4.03269C7.66357 4.20485 7.82464 4.32531 8.01249 4.35392L10.443 4.725C10.5466 4.74072 10.6439 4.78474 10.7241 4.85221C10.8043 4.91967 10.8644 5.00797 10.8976 5.10737C10.9309 5.20678 10.9361 5.31343 10.9126 5.41559C10.8892 5.51775 10.8379 5.61146 10.7646 5.68639L8.97064 7.52516C8.84464 7.65439 8.78695 7.83623 8.81603 8.01439L9.23465 10.5805C9.31126 11.0499 8.8128 11.4012 8.39695 11.1713L6.27618 9.999C6.19182 9.95242 6.09702 9.92798 6.00065 9.92798C5.90427 9.92798 5.80947 9.95242 5.72511 9.999L3.60434 11.1713C3.18849 11.4012 2.69003 11.0499 2.76664 10.5805L3.18526 8.01439C3.19956 7.92643 3.19302 7.83634 3.16616 7.75137C3.13931 7.6664 3.09289 7.58892 3.03065 7.52516L1.23664 5.68639C1.16334 5.61146 1.11214 5.51775 1.08867 5.41559C1.06521 5.31343 1.07039 5.20678 1.10365 5.10737C1.13692 5.00797 1.19697 4.91967 1.27719 4.85221C1.35741 4.78474 1.4547 4.74072 1.55834 4.725L3.98834 4.35392C4.08081 4.33988 4.16838 4.30321 4.24326 4.24717C4.31815 4.19113 4.37802 4.11745 4.41757 4.03269L5.48464 1.76054L5.48511 1.76008Z" fill="#B2B2B2"/>
</svg>
