<svg width="12" height="13" viewBox="0 0 12 13" fill="none" xmlns="http://www.w3.org/2000/svg">
<path d="M5.48511 2.10676C5.69003 1.67014 6.31126 1.67014 6.51618 2.10676L7.5828 4.37937C7.66357 4.55153 7.82464 4.67199 8.01249 4.7006L10.443 5.07168C10.5466 5.0874 10.6439 5.13142 10.7241 5.19889C10.8043 5.26635 10.8644 5.35465 10.8976 5.45405C10.9309 5.55346 10.9361 5.66011 10.9126 5.76227C10.8892 5.86443 10.8379 5.95814 10.7646 6.03307L8.97064 7.87184C8.84464 8.00107 8.78695 8.18291 8.81603 8.36107L9.23465 10.9272C9.31126 11.3966 8.8128 11.7478 8.39695 11.518L6.27618 10.3457C6.19182 10.2991 6.09702 10.2747 6.00065 10.2747C5.90427 10.2747 5.80947 10.2991 5.72511 10.3457L3.60434 11.518C3.18849 11.7478 2.69003 11.3966 2.76664 10.9272L3.18526 8.36107C3.19956 8.27311 3.19302 8.18302 3.16616 8.09805C3.13931 8.01308 3.09289 7.9356 3.03065 7.87184L1.23664 6.03307C1.16334 5.95814 1.11214 5.86443 1.08867 5.76227C1.06521 5.66011 1.07039 5.55346 1.10365 5.45405C1.13692 5.35465 1.19697 5.26635 1.27719 5.19889C1.35741 5.13142 1.4547 5.0874 1.55834 5.07168L3.98834 4.7006C4.08081 4.68656 4.16838 4.64989 4.24326 4.59385C4.31815 4.53781 4.37802 4.46413 4.41757 4.37937L5.48464 2.10722L5.48511 2.10676Z" fill="#34DB8A"/>
</svg>
