<svg width="28" height="28" viewBox="0 0 28 28" fill="none" xmlns="http://www.w3.org/2000/svg">
<path d="M15.199 2.33398C16.5119 2.33615 17.1773 2.34311 17.7522 2.36022L17.9787 2.36762C18.2402 2.37692 18.4983 2.38858 18.8094 2.40317C20.0509 2.46053 20.8978 2.65692 21.6415 2.94567C22.4105 3.2422 23.06 3.64275 23.7084 4.29123C24.3559 4.9397 24.7565 5.59108 25.054 6.35817C25.3417 7.10095 25.5382 7.94873 25.5965 9.19025C25.6104 9.50137 25.6216 9.75943 25.6308 10.021L25.6382 10.2475C25.6552 10.8223 25.663 11.4878 25.6655 12.8008L25.6664 13.6707C25.6665 13.777 25.6665 13.8866 25.6665 13.9998L25.6664 14.3289L25.6657 15.1989C25.6635 16.5119 25.6566 17.1773 25.6395 17.7521L25.632 17.9786C25.6228 18.2403 25.6111 18.4983 25.5965 18.8094C25.5391 20.0509 25.3417 20.8977 25.054 21.6415C24.7575 22.4105 24.3559 23.06 23.7084 23.7084C23.06 24.3559 22.4076 24.7565 21.6415 25.054C20.8978 25.3418 20.0509 25.5381 18.8094 25.5965C18.4983 25.6103 18.2402 25.6217 17.9787 25.6308L17.7522 25.6381C17.1773 25.6553 16.5119 25.663 15.199 25.6655L14.329 25.6665C14.2227 25.6665 14.113 25.6665 13.9999 25.6665H13.6707L12.8008 25.6656C11.4878 25.6635 10.8223 25.6565 10.2475 25.6394L10.021 25.632C9.75942 25.6227 9.50135 25.611 9.19025 25.5965C7.94872 25.5392 7.10289 25.3418 6.35817 25.054C5.5901 24.7575 4.93969 24.3559 4.29122 23.7084C3.64275 23.06 3.24317 22.4076 2.94567 21.6415C2.65692 20.8977 2.4615 20.0509 2.40317 18.8094C2.38931 18.4983 2.378 18.2403 2.36884 17.9786L2.36151 17.7521C2.34444 17.1773 2.33666 16.5119 2.33414 15.1989L2.33398 12.8008C2.33615 11.4878 2.3431 10.8223 2.36021 10.2475L2.36762 10.021C2.37692 9.75943 2.38858 9.50137 2.40317 9.19025C2.46052 7.94775 2.65692 7.10192 2.94567 6.35817C3.24219 5.59012 3.64275 4.9397 4.29122 4.29123C4.93969 3.64275 5.59108 3.24317 6.35817 2.94567C7.10192 2.65692 7.94775 2.4615 9.19025 2.40317C9.50135 2.38932 9.75942 2.37801 10.021 2.36886L10.2475 2.36152C10.8223 2.34444 11.4878 2.33666 12.8008 2.33414L15.199 2.33398ZM13.9999 8.1665C10.7765 8.1665 8.1665 10.7793 8.1665 13.9998C8.1665 17.2232 10.7793 19.8331 13.9999 19.8331C17.2232 19.8331 19.8332 17.2204 19.8332 13.9998C19.8332 10.7765 17.2203 8.1665 13.9999 8.1665ZM13.9999 10.4998C15.9329 10.4998 17.4999 12.0663 17.4999 13.9998C17.4999 15.9328 15.9334 17.4998 13.9999 17.4998C12.0668 17.4998 10.4998 15.9334 10.4998 13.9998C10.4998 12.0667 12.0662 10.4998 13.9999 10.4998ZM20.1249 6.4165C19.3207 6.4165 18.6665 7.06973 18.6665 7.87384C18.6665 8.67797 19.3197 9.3322 20.1249 9.3322C20.9289 9.3322 21.5832 8.67898 21.5832 7.87384C21.5832 7.06973 20.9279 6.4155 20.1249 6.4165Z" fill="#34DB8A"/>
</svg>
