<svg width="28" height="28" viewBox="0 0 28 28" fill="none" xmlns="http://www.w3.org/2000/svg">
<path d="M21.393 21.3955H18.2833V16.5226C18.2833 15.3606 18.2597 13.8652 16.6628 13.8652C15.0415 13.8652 14.7938 15.1297 14.7938 16.4368V21.3955H11.684V11.375H14.6713V12.7408H14.7115C15.129 11.9533 16.144 11.1221 17.6603 11.1221C20.8112 11.1221 21.394 13.1959 21.394 15.8952L21.393 21.3955ZM8.17183 10.0039C7.17083 10.0039 6.3667 9.19362 6.3667 8.197C6.3667 7.20125 7.1717 6.39188 8.17183 6.39188C9.16933 6.39188 9.97783 7.20125 9.97783 8.197C9.97783 9.19362 9.16845 10.0039 8.17183 10.0039ZM9.73108 21.3955H6.61258V11.375H9.73108V21.3955ZM22.9488 3.5H5.05158C4.19495 3.5 3.50195 4.17725 3.50195 5.01288V22.9872C3.50195 23.8236 4.19495 24.5 5.05158 24.5H22.9462C23.802 24.5 24.502 23.8236 24.502 22.9872V5.01288C24.502 4.17725 23.802 3.5 22.9462 3.5H22.9488Z" fill="#34DB8A"/>
</svg>
