<svg width="28" height="28" viewBox="0 0 28 28" fill="none" xmlns="http://www.w3.org/2000/svg">
<path d="M14.2852 4.66699C14.9083 4.67042 16.4673 4.6855 18.1238 4.75184L18.7111 4.77745C20.3788 4.85641 22.0452 4.9913 22.8716 5.22174C23.974 5.53143 24.8405 6.43508 25.1333 7.58053C25.5996 9.39947 25.658 12.9496 25.6652 13.8088L25.6663 13.9868V13.9993C25.6663 13.9993 25.6663 14.0036 25.6663 14.0119L25.6652 14.1899C25.658 15.049 25.5996 18.5992 25.1333 20.4182C24.8364 21.5678 23.9699 22.4715 22.8716 22.7769C22.0452 23.0073 20.3788 23.1422 18.7111 23.2212L18.1238 23.2467C16.4673 23.3131 14.9083 23.3282 14.2852 23.3317L14.0117 23.3326H13.9996C13.9996 23.3326 13.9955 23.3326 13.9875 23.3326L13.7142 23.3317C12.3954 23.3244 6.88132 23.2648 5.12758 22.7769C4.02518 22.4672 3.15872 21.5636 2.86583 20.4182C2.39955 18.5992 2.34126 15.049 2.33398 14.1899V13.8088C2.34126 12.9496 2.39955 9.39947 2.86583 7.58053C3.16278 6.43083 4.02924 5.5272 5.12758 5.22174C6.88132 4.73376 12.3954 4.67425 13.7142 4.66699H14.2852ZM11.6663 9.91599V18.0826L18.6663 13.9993L11.6663 9.91599Z" fill="#34DB8A"/>
</svg>
