<svg width="51" height="51" viewBox="0 0 51 51" fill="none" xmlns="http://www.w3.org/2000/svg">
<g clip-path="url(#clip0_3510_13926)">
<mask id="mask0_3510_13926" style="mask-type:luminance" maskUnits="userSpaceOnUse" x="0" y="0" width="51" height="51">
<path d="M50.5 0.866211H0.5V50.8662H50.5V0.866211Z" fill="white"/>
</mask>
<g mask="url(#mask0_3510_13926)">
<g filter="url(#filter0_d_3510_13926)">
<path d="M25.4983 47.7378C40.0833 47.7378 47.3716 37.9448 47.3716 25.8645C47.3716 13.7842 40.0833 3.99121 25.4983 3.99121C10.9132 3.99121 3.625 13.7842 3.625 25.8645C3.625 37.9448 10.9132 47.7378 25.4983 47.7378Z" fill="url(#paint0_radial_3510_13926)"/>
<path d="M25.4983 47.7378C40.0833 47.7378 47.3716 37.9448 47.3716 25.8645C47.3716 13.7842 40.0833 3.99121 25.4983 3.99121C10.9132 3.99121 3.625 13.7842 3.625 25.8645C3.625 37.9448 10.9132 47.7378 25.4983 47.7378Z" fill="url(#paint1_radial_3510_13926)"/>
<path d="M25.4983 47.7378C40.0833 47.7378 47.3716 37.9448 47.3716 25.8645C47.3716 13.7842 40.0833 3.99121 25.4983 3.99121C10.9132 3.99121 3.625 13.7842 3.625 25.8645C3.625 37.9448 10.9132 47.7378 25.4983 47.7378Z" fill="url(#paint2_radial_3510_13926)"/>
<path d="M25.4983 47.7378C40.0833 47.7378 47.3716 37.9448 47.3716 25.8645C47.3716 13.7842 40.0833 3.99121 25.4983 3.99121C10.9132 3.99121 3.625 13.7842 3.625 25.8645C3.625 37.9448 10.9132 47.7378 25.4983 47.7378Z" fill="url(#paint3_radial_3510_13926)" fill-opacity="0.6"/>
<path d="M25.4983 47.7378C40.0833 47.7378 47.3716 37.9448 47.3716 25.8645C47.3716 13.7842 40.0833 3.99121 25.4983 3.99121C10.9132 3.99121 3.625 13.7842 3.625 25.8645C3.625 37.9448 10.9132 47.7378 25.4983 47.7378Z" fill="url(#paint4_radial_3510_13926)"/>
<path d="M25.4983 47.7378C40.0833 47.7378 47.3716 37.9448 47.3716 25.8645C47.3716 13.7842 40.0833 3.99121 25.4983 3.99121C10.9132 3.99121 3.625 13.7842 3.625 25.8645C3.625 37.9448 10.9132 47.7378 25.4983 47.7378Z" fill="url(#paint5_radial_3510_13926)"/>
<path d="M25.4983 47.7378C40.0833 47.7378 47.3716 37.9448 47.3716 25.8645C47.3716 13.7842 40.0833 3.99121 25.4983 3.99121C10.9132 3.99121 3.625 13.7842 3.625 25.8645C3.625 37.9448 10.9132 47.7378 25.4983 47.7378Z" fill="url(#paint6_radial_3510_13926)"/>
<path d="M25.4983 47.7378C40.0833 47.7378 47.3716 37.9448 47.3716 25.8645C47.3716 13.7842 40.0833 3.99121 25.4983 3.99121C10.9132 3.99121 3.625 13.7842 3.625 25.8645C3.625 37.9448 10.9132 47.7378 25.4983 47.7378Z" fill="url(#paint7_radial_3510_13926)"/>
<path d="M14.5625 36.8037C18.8772 36.8037 22.375 33.3059 22.375 28.9912C22.375 24.6765 18.8772 21.1787 14.5625 21.1787C10.2478 21.1787 6.75 24.6765 6.75 28.9912C6.75 33.3059 10.2478 36.8037 14.5625 36.8037Z" fill="url(#paint8_radial_3510_13926)"/>
<path d="M30.9688 36.8037C34.852 36.8037 38 33.6557 38 29.7725C38 25.8892 34.852 22.7412 30.9688 22.7412C27.0855 22.7412 23.9375 25.8892 23.9375 29.7725C23.9375 33.6557 27.0855 36.8037 30.9688 36.8037Z" fill="url(#paint9_radial_3510_13926)"/>
<path d="M16.9062 33.6787C20.7895 33.6787 23.9375 30.5307 23.9375 26.6475C23.9375 22.7642 20.7895 19.6162 16.9062 19.6162C13.023 19.6162 9.875 22.7642 9.875 26.6475C9.875 30.5307 13.023 33.6787 16.9062 33.6787Z" fill="white"/>
<path d="M34.0938 33.6787C37.977 33.6787 41.125 30.5307 41.125 26.6475C41.125 22.7642 37.977 19.6162 34.0938 19.6162C30.2105 19.6162 27.0625 22.7642 27.0625 26.6475C27.0625 30.5307 30.2105 33.6787 34.0938 33.6787Z" fill="white"/>
<path d="M19.25 30.5537C20.9759 30.5537 22.375 29.1546 22.375 27.4287C22.375 25.7028 20.9759 24.3037 19.25 24.3037C17.5241 24.3037 16.125 25.7028 16.125 27.4287C16.125 29.1546 17.5241 30.5537 19.25 30.5537Z" fill="url(#paint10_linear_3510_13926)"/>
<path d="M31.75 30.5537C33.4759 30.5537 34.875 29.1546 34.875 27.4287C34.875 25.7028 33.4759 24.3037 31.75 24.3037C30.0241 24.3037 28.625 25.7028 28.625 27.4287C28.625 29.1546 30.0241 30.5537 31.75 30.5537Z" fill="url(#paint11_linear_3510_13926)"/>
<path d="M16.5156 16.8818C16.5156 16.8818 17.6875 21.5693 22.7656 21.5693" stroke="url(#paint12_linear_3510_13926)" stroke-width="1.5" stroke-linecap="round" stroke-linejoin="round"/>
<path d="M34.4844 16.8818C34.4844 16.8818 33.3125 21.5693 28.2344 21.5693" stroke="url(#paint13_linear_3510_13926)" stroke-width="1.5" stroke-linecap="round" stroke-linejoin="round"/>
<path d="M19.25 39.9287C19.7708 38.887 21.75 36.8037 25.5 36.8037C29.25 36.8037 31.2292 38.887 31.75 39.9287" stroke="url(#paint14_linear_3510_13926)" stroke-width="2" stroke-linecap="round"/>
</g>
</g>
</g>
<defs>
<filter id="filter0_d_3510_13926" x="-0.375" y="3.99121" width="51.7466" height="51.7466" filterUnits="userSpaceOnUse" color-interpolation-filters="sRGB">
<feFlood flood-opacity="0" result="BackgroundImageFix"/>
<feColorMatrix in="SourceAlpha" type="matrix" values="0 0 0 0 0 0 0 0 0 0 0 0 0 0 0 0 0 0 127 0" result="hardAlpha"/>
<feOffset dy="4"/>
<feGaussianBlur stdDeviation="2"/>
<feComposite in2="hardAlpha" operator="out"/>
<feColorMatrix type="matrix" values="0 0 0 0 0 0 0 0 0 0 0 0 0 0 0 0 0 0 0.25 0"/>
<feBlend mode="normal" in2="BackgroundImageFix" result="effect1_dropShadow_3510_13926"/>
<feBlend mode="normal" in="SourceGraphic" in2="effect1_dropShadow_3510_13926" result="shape"/>
</filter>
<radialGradient id="paint0_radial_3510_13926" cx="0" cy="0" r="1" gradientUnits="userSpaceOnUse" gradientTransform="translate(40.3438 14.9287) rotate(132.839) scale(58.5989)">
<stop stop-color="#FFF478"/>
<stop offset="0.474827" stop-color="#FFB02E"/>
<stop offset="1" stop-color="#F70A8D"/>
</radialGradient>
<radialGradient id="paint1_radial_3510_13926" cx="0" cy="0" r="1" gradientUnits="userSpaceOnUse" gradientTransform="translate(40.3438 14.9287) rotate(131.878) scale(60.8573)">
<stop stop-color="#FFF478"/>
<stop offset="0.474827" stop-color="#FFB02E"/>
<stop offset="1" stop-color="#F70A8D"/>
</radialGradient>
<radialGradient id="paint2_radial_3510_13926" cx="0" cy="0" r="1" gradientUnits="userSpaceOnUse" gradientTransform="translate(25.5 20.3975) rotate(101.31) scale(27.8853 35.7158)">
<stop offset="0.787821" stop-color="#F59639" stop-opacity="0"/>
<stop offset="0.972509" stop-color="#FF7DCE"/>
</radialGradient>
<radialGradient id="paint3_radial_3510_13926" cx="0" cy="0" r="1" gradientUnits="userSpaceOnUse" gradientTransform="translate(28.625 22.7412) rotate(135) scale(64.0816)">
<stop offset="0.314853" stop-opacity="0"/>
<stop offset="1"/>
</radialGradient>
<radialGradient id="paint4_radial_3510_13926" cx="0" cy="0" r="1" gradientUnits="userSpaceOnUse" gradientTransform="translate(25.5 27.4287) rotate(77.692) scale(43.9795)">
<stop offset="0.507903" stop-color="#7D6133" stop-opacity="0"/>
<stop offset="1" stop-color="#715B32"/>
</radialGradient>
<radialGradient id="paint5_radial_3510_13926" cx="0" cy="0" r="1" gradientUnits="userSpaceOnUse" gradientTransform="translate(26.2813 26.6475) rotate(55.7131) scale(20.8023 15.0786)">
<stop stop-color="#FFB849"/>
<stop offset="1" stop-color="#FFB847" stop-opacity="0"/>
</radialGradient>
<radialGradient id="paint6_radial_3510_13926" cx="0" cy="0" r="1" gradientUnits="userSpaceOnUse" gradientTransform="translate(32.5313 28.9912) rotate(9.86581) scale(18.2384)">
<stop stop-color="#FFA64B"/>
<stop offset="0.900412" stop-color="#FFAE46" stop-opacity="0"/>
</radialGradient>
<radialGradient id="paint7_radial_3510_13926" cx="0" cy="0" r="1" gradientUnits="userSpaceOnUse" gradientTransform="translate(27.8438 24.3037) rotate(43.9708) scale(92.2702)">
<stop offset="0.185425" stop-opacity="0"/>
<stop offset="1" stop-opacity="0.4"/>
</radialGradient>
<radialGradient id="paint8_radial_3510_13926" cx="0" cy="0" r="1" gradientUnits="userSpaceOnUse" gradientTransform="translate(20.6389 22.9148) rotate(135) scale(15.2224 7.87863)">
<stop stop-color="#392108"/>
<stop offset="1" stop-color="#C87928" stop-opacity="0"/>
</radialGradient>
<radialGradient id="paint9_radial_3510_13926" cx="0" cy="0" r="1" gradientUnits="userSpaceOnUse" gradientTransform="translate(36.4375 24.3037) rotate(135) scale(12.7058 7.17264)">
<stop stop-color="#392108"/>
<stop offset="1" stop-color="#C87928" stop-opacity="0"/>
</radialGradient>
<linearGradient id="paint10_linear_3510_13926" x1="32.7116" y1="24.3037" x2="31.6352" y2="30.6009" gradientUnits="userSpaceOnUse">
<stop stop-color="#553B3E"/>
<stop offset="1" stop-color="#3D2432"/>
</linearGradient>
<linearGradient id="paint11_linear_3510_13926" x1="32.7116" y1="24.3037" x2="31.6352" y2="30.6009" gradientUnits="userSpaceOnUse">
<stop stop-color="#553B3E"/>
<stop offset="1" stop-color="#3D2432"/>
</linearGradient>
<linearGradient id="paint12_linear_3510_13926" x1="18.4688" y1="16.4912" x2="18.4688" y2="18.835" gradientUnits="userSpaceOnUse">
<stop offset="0.0299084" stop-color="#524049"/>
<stop offset="1" stop-color="#4A2C42"/>
</linearGradient>
<linearGradient id="paint13_linear_3510_13926" x1="32.5312" y1="16.4912" x2="32.5312" y2="18.835" gradientUnits="userSpaceOnUse">
<stop offset="0.0299084" stop-color="#524049"/>
<stop offset="1" stop-color="#4A2C42"/>
</linearGradient>
<linearGradient id="paint14_linear_3510_13926" x1="25.5" y1="35.2412" x2="25.5" y2="38.3662" gradientUnits="userSpaceOnUse">
<stop stop-color="#4F3C43"/>
<stop offset="1" stop-color="#512756"/>
</linearGradient>
<clipPath id="clip0_3510_13926">
<rect width="50" height="50" fill="white" transform="translate(0.5 0.866211)"/>
</clipPath>
</defs>
</svg>
