<svg width="51" height="51" viewBox="0 0 51 51" fill="none" xmlns="http://www.w3.org/2000/svg">
<g clip-path="url(#clip0_3510_13948)">
<path d="M25.4983 47.7378C40.0833 47.7378 47.3716 37.9448 47.3716 25.8645C47.3716 13.7842 40.0833 3.99121 25.4983 3.99121C10.9132 3.99121 3.625 13.7842 3.625 25.8645C3.625 37.9448 10.9132 47.7378 25.4983 47.7378Z" fill="url(#paint0_radial_3510_13948)"/>
<path d="M25.4983 47.7378C40.0833 47.7378 47.3716 37.9448 47.3716 25.8645C47.3716 13.7842 40.0833 3.99121 25.4983 3.99121C10.9132 3.99121 3.625 13.7842 3.625 25.8645C3.625 37.9448 10.9132 47.7378 25.4983 47.7378Z" fill="url(#paint1_radial_3510_13948)"/>
<path d="M25.4983 47.7378C40.0833 47.7378 47.3716 37.9448 47.3716 25.8645C47.3716 13.7842 40.0833 3.99121 25.4983 3.99121C10.9132 3.99121 3.625 13.7842 3.625 25.8645C3.625 37.9448 10.9132 47.7378 25.4983 47.7378Z" fill="url(#paint2_radial_3510_13948)"/>
<path d="M25.4983 47.7378C40.0833 47.7378 47.3716 37.9448 47.3716 25.8645C47.3716 13.7842 40.0833 3.99121 25.4983 3.99121C10.9132 3.99121 3.625 13.7842 3.625 25.8645C3.625 37.9448 10.9132 47.7378 25.4983 47.7378Z" fill="url(#paint3_radial_3510_13948)" fill-opacity="0.6"/>
<path d="M25.4983 47.7378C40.0833 47.7378 47.3716 37.9448 47.3716 25.8645C47.3716 13.7842 40.0833 3.99121 25.4983 3.99121C10.9132 3.99121 3.625 13.7842 3.625 25.8645C3.625 37.9448 10.9132 47.7378 25.4983 47.7378Z" fill="url(#paint4_radial_3510_13948)"/>
<path d="M25.4983 47.7378C40.0833 47.7378 47.3716 37.9448 47.3716 25.8645C47.3716 13.7842 40.0833 3.99121 25.4983 3.99121C10.9132 3.99121 3.625 13.7842 3.625 25.8645C3.625 37.9448 10.9132 47.7378 25.4983 47.7378Z" fill="url(#paint5_radial_3510_13948)"/>
<path d="M25.4983 47.7378C40.0833 47.7378 47.3716 37.9448 47.3716 25.8645C47.3716 13.7842 40.0833 3.99121 25.4983 3.99121C10.9132 3.99121 3.625 13.7842 3.625 25.8645C3.625 37.9448 10.9132 47.7378 25.4983 47.7378Z" fill="url(#paint6_radial_3510_13948)"/>
<g filter="url(#filter0_d_3510_13948)">
<path d="M25.4983 47.7378C40.0833 47.7378 47.3716 37.9448 47.3716 25.8645C47.3716 13.7842 40.0833 3.99121 25.4983 3.99121C10.9132 3.99121 3.625 13.7842 3.625 25.8645C3.625 37.9448 10.9132 47.7378 25.4983 47.7378Z" fill="url(#paint7_radial_3510_13948)" shape-rendering="crispEdges"/>
</g>
<path d="M14.5891 29.1378C18.6219 29.1378 21.8912 25.8685 21.8912 21.8357C21.8912 17.8029 18.6219 14.5337 14.5891 14.5337C10.5563 14.5337 7.28711 17.8029 7.28711 21.8357C7.28711 25.8685 10.5563 29.1378 14.5891 29.1378Z" fill="url(#paint8_radial_3510_13948)"/>
<path d="M30.5692 29.2842C34.2318 29.2842 37.201 26.3151 37.201 22.6525C37.201 18.9899 34.2318 16.0208 30.5692 16.0208C26.9066 16.0208 23.9375 18.9899 23.9375 22.6525C23.9375 26.3151 26.9066 29.2842 30.5692 29.2842Z" fill="url(#paint9_radial_3510_13948)"/>
<path d="M16.7798 26.2168C20.4094 26.2168 23.3517 23.2746 23.3517 19.6451C23.3517 16.0155 20.4094 13.0732 16.7798 13.0732C13.1503 13.0732 10.208 16.0155 10.208 19.6451C10.208 23.2746 13.1503 26.2168 16.7798 26.2168Z" fill="white"/>
<path d="M34.2006 26.3367C37.8631 26.3367 40.8323 23.3676 40.8323 19.705C40.8323 16.0424 37.8631 13.0732 34.2006 13.0732C30.5379 13.0732 27.5688 16.0424 27.5688 19.705C27.5688 23.3676 30.5379 26.3367 34.2006 26.3367Z" fill="white"/>
<path d="M17.6875 24.3037C20.2764 24.3037 22.375 22.2051 22.375 19.6162C22.375 17.0273 20.2764 14.9287 17.6875 14.9287C15.0987 14.9287 13 17.0273 13 19.6162C13 22.2051 15.0987 24.3037 17.6875 24.3037Z" fill="url(#paint10_linear_3510_13948)"/>
<path d="M33.3125 24.3037C35.9014 24.3037 38 22.2051 38 19.6162C38 17.0273 35.9014 14.9287 33.3125 14.9287C30.7236 14.9287 28.625 17.0273 28.625 19.6162C28.625 22.2051 30.7236 24.3037 33.3125 24.3037Z" fill="url(#paint11_linear_3510_13948)"/>
<path fill-rule="evenodd" clip-rule="evenodd" d="M16.125 32.1162C16.125 31.2532 16.8245 30.5537 17.6875 30.5537H33.3125C34.1755 30.5537 34.875 31.2532 34.875 32.1162C34.875 32.9792 34.1755 33.6787 33.3125 33.6787H17.6875C16.8245 33.6787 16.125 32.9792 16.125 32.1162Z" fill="url(#paint12_linear_3510_13948)"/>
</g>
<defs>
<filter id="filter0_d_3510_13948" x="-0.375" y="3.99121" width="51.7466" height="51.7466" filterUnits="userSpaceOnUse" color-interpolation-filters="sRGB">
<feFlood flood-opacity="0" result="BackgroundImageFix"/>
<feColorMatrix in="SourceAlpha" type="matrix" values="0 0 0 0 0 0 0 0 0 0 0 0 0 0 0 0 0 0 127 0" result="hardAlpha"/>
<feOffset dy="4"/>
<feGaussianBlur stdDeviation="2"/>
<feComposite in2="hardAlpha" operator="out"/>
<feColorMatrix type="matrix" values="0 0 0 0 0 0 0 0 0 0 0 0 0 0 0 0 0 0 0.25 0"/>
<feBlend mode="normal" in2="BackgroundImageFix" result="effect1_dropShadow_3510_13948"/>
<feBlend mode="normal" in="SourceGraphic" in2="effect1_dropShadow_3510_13948" result="shape"/>
</filter>
<radialGradient id="paint0_radial_3510_13948" cx="0" cy="0" r="1" gradientUnits="userSpaceOnUse" gradientTransform="translate(40.3438 14.9287) rotate(132.839) scale(58.5989)">
<stop stop-color="#FFF478"/>
<stop offset="0.474827" stop-color="#FFB02E"/>
<stop offset="1" stop-color="#F70A8D"/>
</radialGradient>
<radialGradient id="paint1_radial_3510_13948" cx="0" cy="0" r="1" gradientUnits="userSpaceOnUse" gradientTransform="translate(40.3438 14.9287) rotate(131.878) scale(60.8573)">
<stop stop-color="#FFF478"/>
<stop offset="0.474827" stop-color="#FFB02E"/>
<stop offset="1" stop-color="#F70A8D"/>
</radialGradient>
<radialGradient id="paint2_radial_3510_13948" cx="0" cy="0" r="1" gradientUnits="userSpaceOnUse" gradientTransform="translate(25.5 20.3975) rotate(101.31) scale(27.8853 35.7158)">
<stop offset="0.787821" stop-color="#F59639" stop-opacity="0"/>
<stop offset="0.972509" stop-color="#FF7DCE"/>
</radialGradient>
<radialGradient id="paint3_radial_3510_13948" cx="0" cy="0" r="1" gradientUnits="userSpaceOnUse" gradientTransform="translate(28.625 22.7412) rotate(135) scale(64.0816)">
<stop offset="0.314853" stop-opacity="0"/>
<stop offset="1"/>
</radialGradient>
<radialGradient id="paint4_radial_3510_13948" cx="0" cy="0" r="1" gradientUnits="userSpaceOnUse" gradientTransform="translate(25.5 27.4287) rotate(77.692) scale(43.9795)">
<stop offset="0.507903" stop-color="#7D6133" stop-opacity="0"/>
<stop offset="1" stop-color="#715B32"/>
</radialGradient>
<radialGradient id="paint5_radial_3510_13948" cx="0" cy="0" r="1" gradientUnits="userSpaceOnUse" gradientTransform="translate(26.2813 26.6475) rotate(55.7131) scale(20.8023 15.0786)">
<stop stop-color="#FFB849"/>
<stop offset="1" stop-color="#FFB847" stop-opacity="0"/>
</radialGradient>
<radialGradient id="paint6_radial_3510_13948" cx="0" cy="0" r="1" gradientUnits="userSpaceOnUse" gradientTransform="translate(32.5313 28.9912) rotate(9.86581) scale(18.2384)">
<stop stop-color="#FFA64B"/>
<stop offset="0.900412" stop-color="#FFAE46" stop-opacity="0"/>
</radialGradient>
<radialGradient id="paint7_radial_3510_13948" cx="0" cy="0" r="1" gradientUnits="userSpaceOnUse" gradientTransform="translate(27.8438 24.3037) rotate(43.9708) scale(92.2702)">
<stop offset="0.185425" stop-opacity="0"/>
<stop offset="1" stop-opacity="0.4"/>
</radialGradient>
<radialGradient id="paint8_radial_3510_13948" cx="0" cy="0" r="1" gradientUnits="userSpaceOnUse" gradientTransform="translate(20.2684 16.1563) rotate(135) scale(14.2278 7.36383)">
<stop stop-color="#392108"/>
<stop offset="1" stop-color="#C87928" stop-opacity="0"/>
</radialGradient>
<radialGradient id="paint9_radial_3510_13948" cx="0" cy="0" r="1" gradientUnits="userSpaceOnUse" gradientTransform="translate(35.7272 17.4944) rotate(135) scale(11.9839 6.76509)">
<stop stop-color="#392108"/>
<stop offset="1" stop-color="#C87928" stop-opacity="0"/>
</radialGradient>
<linearGradient id="paint10_linear_3510_13948" x1="26.2812" y1="13.3662" x2="24.7187" y2="24.3037" gradientUnits="userSpaceOnUse">
<stop stop-color="#553B3E"/>
<stop offset="1" stop-color="#3D2432"/>
</linearGradient>
<linearGradient id="paint11_linear_3510_13948" x1="26.2813" y1="13.3662" x2="24.7187" y2="24.3037" gradientUnits="userSpaceOnUse">
<stop stop-color="#553B3E"/>
<stop offset="1" stop-color="#3D2432"/>
</linearGradient>
<linearGradient id="paint12_linear_3510_13948" x1="25.5" y1="31.335" x2="25.5" y2="32.8975" gradientUnits="userSpaceOnUse">
<stop stop-color="#4F3C43"/>
<stop offset="1" stop-color="#512756"/>
</linearGradient>
<clipPath id="clip0_3510_13948">
<rect width="50" height="50" fill="white" transform="translate(0.5 0.866211)"/>
</clipPath>
</defs>
</svg>
