<svg width="51" height="51" viewBox="0 0 51 51" fill="none" xmlns="http://www.w3.org/2000/svg">
<g clip-path="url(#clip0_3510_14028)">
<path d="M25.4983 47.7378C40.0833 47.7378 47.3716 37.9448 47.3716 25.8645C47.3716 13.7842 40.0833 3.99121 25.4983 3.99121C10.9132 3.99121 3.625 13.7842 3.625 25.8645C3.625 37.9448 10.9132 47.7378 25.4983 47.7378Z" fill="url(#paint0_radial_3510_14028)"/>
<path d="M25.4983 47.7378C40.0833 47.7378 47.3716 37.9448 47.3716 25.8645C47.3716 13.7842 40.0833 3.99121 25.4983 3.99121C10.9132 3.99121 3.625 13.7842 3.625 25.8645C3.625 37.9448 10.9132 47.7378 25.4983 47.7378Z" fill="url(#paint1_radial_3510_14028)"/>
<path d="M25.4983 47.7378C40.0833 47.7378 47.3716 37.9448 47.3716 25.8645C47.3716 13.7842 40.0833 3.99121 25.4983 3.99121C10.9132 3.99121 3.625 13.7842 3.625 25.8645C3.625 37.9448 10.9132 47.7378 25.4983 47.7378Z" fill="url(#paint2_radial_3510_14028)"/>
<path d="M25.4983 47.7378C40.0833 47.7378 47.3716 37.9448 47.3716 25.8645C47.3716 13.7842 40.0833 3.99121 25.4983 3.99121C10.9132 3.99121 3.625 13.7842 3.625 25.8645C3.625 37.9448 10.9132 47.7378 25.4983 47.7378Z" fill="url(#paint3_radial_3510_14028)" fill-opacity="0.6"/>
<path d="M25.4983 47.7378C40.0833 47.7378 47.3716 37.9448 47.3716 25.8645C47.3716 13.7842 40.0833 3.99121 25.4983 3.99121C10.9132 3.99121 3.625 13.7842 3.625 25.8645C3.625 37.9448 10.9132 47.7378 25.4983 47.7378Z" fill="url(#paint4_radial_3510_14028)"/>
<path d="M25.4983 47.7378C40.0833 47.7378 47.3716 37.9448 47.3716 25.8645C47.3716 13.7842 40.0833 3.99121 25.4983 3.99121C10.9132 3.99121 3.625 13.7842 3.625 25.8645C3.625 37.9448 10.9132 47.7378 25.4983 47.7378Z" fill="url(#paint5_radial_3510_14028)"/>
<path d="M25.4983 47.7378C40.0833 47.7378 47.3716 37.9448 47.3716 25.8645C47.3716 13.7842 40.0833 3.99121 25.4983 3.99121C10.9132 3.99121 3.625 13.7842 3.625 25.8645C3.625 37.9448 10.9132 47.7378 25.4983 47.7378Z" fill="url(#paint6_radial_3510_14028)"/>
<g filter="url(#filter0_d_3510_14028)">
<path d="M25.4983 47.7378C40.0833 47.7378 47.3716 37.9448 47.3716 25.8645C47.3716 13.7842 40.0833 3.99121 25.4983 3.99121C10.9132 3.99121 3.625 13.7842 3.625 25.8645C3.625 37.9448 10.9132 47.7378 25.4983 47.7378Z" fill="url(#paint7_radial_3510_14028)" shape-rendering="crispEdges"/>
</g>
<g opacity="0.5" filter="url(#filter1_f_3510_14028)">
<path d="M12.2188 18.835C12.2188 18.835 12.6094 15.71 16.125 15.71C19.6406 15.71 20.0312 18.835 20.0312 18.835" stroke="#9A4609" stroke-width="2" stroke-linecap="round"/>
</g>
<g opacity="0.5" filter="url(#filter2_f_3510_14028)">
<path d="M29.4062 18.835C29.4062 18.835 30.1875 15.71 33.3125 15.71C36.4375 15.71 37.2188 18.835 37.2188 18.835" stroke="#9A4609" stroke-width="2" stroke-linecap="round"/>
</g>
<path d="M13 18.0537C13 18.0537 13.3906 14.9287 16.9062 14.9287C20.4219 14.9287 20.8125 18.0537 20.8125 18.0537" stroke="#43273B" stroke-width="2" stroke-linecap="round" stroke-linejoin="round"/>
<g opacity="0.26" filter="url(#filter3_f_3510_14028)">
<path d="M13.3906 17.6631C13.3906 17.6631 13.7812 14.5381 17.2969 14.5381C20.8125 14.5381 21.2031 17.6631 21.2031 17.6631" stroke="white" stroke-width="0.75" stroke-linecap="round" stroke-linejoin="round"/>
</g>
<path d="M30.1875 18.0537C30.1875 18.0537 30.9688 14.9287 34.0938 14.9287C37.2188 14.9287 38 18.0537 38 18.0537" stroke="#43273B" stroke-width="2" stroke-linecap="round" stroke-linejoin="round"/>
<g opacity="0.26" filter="url(#filter4_f_3510_14028)">
<path d="M30.5781 17.6631C30.5781 17.6631 30.9688 14.5381 34.4844 14.5381C38 14.5381 38.3906 17.6631 38.3906 17.6631" stroke="white" stroke-width="0.75" stroke-linecap="round" stroke-linejoin="round"/>
</g>
<path d="M25.5 39.9287C11.4375 39.9287 11.4375 25.8662 11.4375 25.8662H39.5625C39.5625 25.8662 39.5625 39.9287 25.5 39.9287Z" fill="url(#paint8_radial_3510_14028)"/>
<path d="M13 26.6475V25.8662H38V26.6475C38 27.5104 37.3005 28.21 36.4375 28.21H14.5625C13.6996 28.21 13 27.5104 13 26.6475Z" fill="url(#paint9_linear_3510_14028)"/>
</g>
<defs>
<filter id="filter0_d_3510_14028" x="-0.375" y="3.99121" width="51.7466" height="51.7466" filterUnits="userSpaceOnUse" color-interpolation-filters="sRGB">
<feFlood flood-opacity="0" result="BackgroundImageFix"/>
<feColorMatrix in="SourceAlpha" type="matrix" values="0 0 0 0 0 0 0 0 0 0 0 0 0 0 0 0 0 0 127 0" result="hardAlpha"/>
<feOffset dy="4"/>
<feGaussianBlur stdDeviation="2"/>
<feComposite in2="hardAlpha" operator="out"/>
<feColorMatrix type="matrix" values="0 0 0 0 0 0 0 0 0 0 0 0 0 0 0 0 0 0 0.25 0"/>
<feBlend mode="normal" in2="BackgroundImageFix" result="effect1_dropShadow_3510_14028"/>
<feBlend mode="normal" in="SourceGraphic" in2="effect1_dropShadow_3510_14028" result="shape"/>
</filter>
<filter id="filter1_f_3510_14028" x="9.71875" y="13.21" width="12.8125" height="8.125" filterUnits="userSpaceOnUse" color-interpolation-filters="sRGB">
<feFlood flood-opacity="0" result="BackgroundImageFix"/>
<feBlend mode="normal" in="SourceGraphic" in2="BackgroundImageFix" result="shape"/>
<feGaussianBlur stdDeviation="0.75" result="effect1_foregroundBlur_3510_14028"/>
</filter>
<filter id="filter2_f_3510_14028" x="26.906" y="13.21" width="12.813" height="8.12524" filterUnits="userSpaceOnUse" color-interpolation-filters="sRGB">
<feFlood flood-opacity="0" result="BackgroundImageFix"/>
<feBlend mode="normal" in="SourceGraphic" in2="BackgroundImageFix" result="shape"/>
<feGaussianBlur stdDeviation="0.75" result="effect1_foregroundBlur_3510_14028"/>
</filter>
<filter id="filter3_f_3510_14028" x="11.5156" y="12.6631" width="11.5625" height="6.875" filterUnits="userSpaceOnUse" color-interpolation-filters="sRGB">
<feFlood flood-opacity="0" result="BackgroundImageFix"/>
<feBlend mode="normal" in="SourceGraphic" in2="BackgroundImageFix" result="shape"/>
<feGaussianBlur stdDeviation="0.75" result="effect1_foregroundBlur_3510_14028"/>
</filter>
<filter id="filter4_f_3510_14028" x="28.7031" y="12.6631" width="11.5625" height="6.875" filterUnits="userSpaceOnUse" color-interpolation-filters="sRGB">
<feFlood flood-opacity="0" result="BackgroundImageFix"/>
<feBlend mode="normal" in="SourceGraphic" in2="BackgroundImageFix" result="shape"/>
<feGaussianBlur stdDeviation="0.75" result="effect1_foregroundBlur_3510_14028"/>
</filter>
<radialGradient id="paint0_radial_3510_14028" cx="0" cy="0" r="1" gradientUnits="userSpaceOnUse" gradientTransform="translate(40.3438 14.9287) rotate(132.839) scale(58.5989)">
<stop stop-color="#FFF478"/>
<stop offset="0.474827" stop-color="#FFB02E"/>
<stop offset="1" stop-color="#F70A8D"/>
</radialGradient>
<radialGradient id="paint1_radial_3510_14028" cx="0" cy="0" r="1" gradientUnits="userSpaceOnUse" gradientTransform="translate(40.3438 14.9287) rotate(131.878) scale(60.8573)">
<stop stop-color="#FFF478"/>
<stop offset="0.474827" stop-color="#FFB02E"/>
<stop offset="1" stop-color="#F70A8D"/>
</radialGradient>
<radialGradient id="paint2_radial_3510_14028" cx="0" cy="0" r="1" gradientUnits="userSpaceOnUse" gradientTransform="translate(25.5 20.3975) rotate(101.31) scale(27.8853 35.7158)">
<stop offset="0.787821" stop-color="#F59639" stop-opacity="0"/>
<stop offset="0.972509" stop-color="#FF7DCE"/>
</radialGradient>
<radialGradient id="paint3_radial_3510_14028" cx="0" cy="0" r="1" gradientUnits="userSpaceOnUse" gradientTransform="translate(28.625 22.7412) rotate(135) scale(64.0816)">
<stop offset="0.314853" stop-opacity="0"/>
<stop offset="1"/>
</radialGradient>
<radialGradient id="paint4_radial_3510_14028" cx="0" cy="0" r="1" gradientUnits="userSpaceOnUse" gradientTransform="translate(25.5 27.4287) rotate(77.692) scale(43.9795)">
<stop offset="0.507903" stop-color="#7D6133" stop-opacity="0"/>
<stop offset="1" stop-color="#715B32"/>
</radialGradient>
<radialGradient id="paint5_radial_3510_14028" cx="0" cy="0" r="1" gradientUnits="userSpaceOnUse" gradientTransform="translate(26.2813 26.6475) rotate(55.7131) scale(20.8023 15.0786)">
<stop stop-color="#FFB849"/>
<stop offset="1" stop-color="#FFB847" stop-opacity="0"/>
</radialGradient>
<radialGradient id="paint6_radial_3510_14028" cx="0" cy="0" r="1" gradientUnits="userSpaceOnUse" gradientTransform="translate(32.5313 28.9912) rotate(9.86581) scale(18.2384)">
<stop stop-color="#FFA64B"/>
<stop offset="0.900412" stop-color="#FFAE46" stop-opacity="0"/>
</radialGradient>
<radialGradient id="paint7_radial_3510_14028" cx="0" cy="0" r="1" gradientUnits="userSpaceOnUse" gradientTransform="translate(27.8438 24.3037) rotate(43.9708) scale(92.2702)">
<stop offset="0.185425" stop-opacity="0"/>
<stop offset="1" stop-opacity="0.4"/>
</radialGradient>
<radialGradient id="paint8_radial_3510_14028" cx="0" cy="0" r="1" gradientUnits="userSpaceOnUse" gradientTransform="translate(25.5 43.0537) rotate(-90) scale(17.1875 34.375)">
<stop stop-color="#F70A8D"/>
<stop offset="1" stop-color="#89029C"/>
</radialGradient>
<linearGradient id="paint9_linear_3510_14028" x1="25.5" y1="25.8662" x2="25.5" y2="28.21" gradientUnits="userSpaceOnUse">
<stop stop-color="#ECCDFF"/>
<stop offset="1" stop-color="white"/>
</linearGradient>
<clipPath id="clip0_3510_14028">
<rect width="50" height="50" fill="white" transform="translate(0.5 0.866211)"/>
</clipPath>
</defs>
</svg>
