<svg width="51" height="30" viewBox="0 0 51 30" fill="none" xmlns="http://www.w3.org/2000/svg">
<rect width="51" height="30" rx="15" fill="#186841"/>
<path d="M15.8179 23.0001V11.5601L13.1179 13.2201V10.2201L15.8179 8.6001H18.5979V23.0001H15.8179Z" fill="white"/>
<path d="M45 15C45 20.5228 40.5228 25 35 25C29.4772 25 25 20.5228 25 15C25 9.47715 29.4772 5 35 5C40.5228 5 45 9.47715 45 15Z" fill="#FFD600"/>
<path d="M31.4589 11.7315C33.1879 11.7315 34.1853 12.5764 34.1853 14.062C34.1853 15.6405 33.1879 16.5504 31.4589 16.5504H30.5374V18.2403H28.3335V11.7315H31.4589ZM31.3449 14.9163C31.8199 14.9163 32.0954 14.6284 32.0954 14.127C32.0954 13.6442 31.8199 13.3657 31.3449 13.3657H30.5374V14.9163H31.3449Z" fill="#186841"/>
<path d="M39.6719 16.3276V14.8141H41.5623V17.4975C40.8214 17.9803 39.5959 18.3332 38.6459 18.3332C36.556 18.3332 35.036 16.9218 35.036 14.9906C35.036 13.0685 36.613 11.6665 38.7884 11.6665C39.8239 11.6665 40.9543 12.0565 41.6668 12.6693L40.4224 14.1456C39.9759 13.7278 39.3299 13.4585 38.7789 13.4585C37.9239 13.4585 37.2969 14.1085 37.2969 14.9906C37.2969 15.8912 37.9334 16.5412 38.7979 16.5412C39.0259 16.5412 39.3489 16.4576 39.6719 16.3276Z" fill="#186841"/>
</svg>
