<svg width="18" height="18" viewBox="0 0 18 18" fill="none" xmlns="http://www.w3.org/2000/svg">
<path d="M2 12.3158V18H0V0H9.382C9.56766 9.39303e-05 9.74963 0.0491524 9.90753 0.141681C10.0654 0.23421 10.193 0.366555 10.276 0.523895L11 1.89474H17C17.2652 1.89474 17.5196 1.99455 17.7071 2.17221C17.8946 2.34988 18 2.59085 18 2.84211V13.2632C18 13.5144 17.8946 13.7554 17.7071 13.933C17.5196 14.1107 17.2652 14.2105 17 14.2105H10.618C10.4323 14.2104 10.2504 14.1614 10.0925 14.0688C9.93458 13.9763 9.80699 13.844 9.724 13.6866L9 12.3158H2ZM2 1.89474V10.4211H10.236L11.236 12.3158H16V3.78947H9.764L8.764 1.89474H2Z" fill="#34DB8A"/>
</svg>
