<svg width="20" height="20" viewBox="0 0 20 20" fill="none" xmlns="http://www.w3.org/2000/svg">
<path d="M8.23945 16.952C7.52773 16.6441 6.75781 16.4844 5.96484 16.4844H2.34375V2.34375H3.51563V14.1406H5.27344C6.87031 14.1406 8.17656 15.391 8.23945 16.952Z" fill="#00D5A2"/>
<path d="M14.0353 3.51562C12.7941 3.51562 11.5987 3.84078 10.5449 4.46254C10.5721 4.72871 10.5861 4.99937 10.5861 5.27344V17.6317C10.6646 17.5748 10.7543 17.5117 10.8565 17.4446C12.6657 16.2379 13.9123 16.4844 17.6564 16.4844V3.51562H14.0353Z" fill="#00D5A2"/>
<path d="M9.41406 17.0703C9.41406 14.8087 7.5566 12.9688 5.27344 12.9688H4.6875V0C7.61684 0 9.41406 2.36566 9.41406 5.27344V17.0703Z" fill="#00D5A2"/>
</svg>
