<svg width="21" height="21" viewBox="0 0 21 21" fill="none" xmlns="http://www.w3.org/2000/svg">
<g clip-path="url(#clip0_313_4056)">
<path d="M18 0.0268555H3C1.62125 0.0268555 0.5 1.14811 0.5 2.52686V17.5269C0.5 18.9056 1.62125 20.0269 3 20.0269H18C19.3787 20.0269 20.5 18.9056 20.5 17.5269V2.52686C20.5 1.14811 19.3787 0.0268555 18 0.0268555Z" fill="#1976D2"/>
<path d="M17.375 10.0269H14.25V7.52686C14.25 6.83686 14.81 6.90186 15.5 6.90186H16.75V3.77686H14.25C12.1788 3.77686 10.5 5.45561 10.5 7.52686V10.0269H8V13.1519H10.5V20.0269H14.25V13.1519H16.125L17.375 10.0269Z" fill="#FAFAFA"/>
</g>
<defs>
<clipPath id="clip0_313_4056">
<rect width="20" height="20" fill="white" transform="translate(0.5 0.0268555)"/>
</clipPath>
</defs>
</svg>
