<svg width="18" height="19" viewBox="0 0 18 19" fill="none" xmlns="http://www.w3.org/2000/svg">
<path d="M17.4499 17.8362C17.4534 18.0888 17.3564 18.3324 17.1803 18.5136C17.0043 18.6947 16.7635 18.7985 16.5109 18.8022H1.48889C1.23631 18.7985 0.995524 18.6947 0.81945 18.5136C0.643376 18.3324 0.546422 18.0888 0.549895 17.8362V7.68121C0.549248 7.53504 0.58144 7.39059 0.644096 7.25853C0.706752 7.12647 0.798271 7.01017 0.911895 6.91821L8.42289 0.90721C8.58615 0.775466 8.78961 0.703613 8.9994 0.703613C9.20918 0.703613 9.41264 0.775466 9.5759 0.90721L17.0869 6.91821C17.2005 7.01017 17.292 7.12647 17.3547 7.25853C17.4173 7.39059 17.4495 7.53504 17.4489 7.68121L17.4499 17.8362ZM4.30589 13.0042V14.9362H13.6949V13.0042H4.30589Z" fill="#00D5A2"/>
</svg>
