<svg width="22" height="23" viewBox="0 0 22 23" fill="none" xmlns="http://www.w3.org/2000/svg">
<path d="M21.5 21.3332C21.5 21.6426 21.3771 21.9393 21.1583 22.1581C20.9395 22.3769 20.6428 22.4998 20.3333 22.4998H1.66667C1.35725 22.4998 1.0605 22.3769 0.841709 22.1581C0.622917 21.9393 0.5 21.6426 0.5 21.3332V9.0715C0.499877 8.89371 0.540387 8.71825 0.618435 8.55851C0.696484 8.39877 0.810007 8.25899 0.950334 8.14983L10.2837 0.890829C10.4885 0.731515 10.7405 0.64502 11 0.64502C11.2595 0.64502 11.5115 0.731515 11.7163 0.890829L21.0497 8.14983C21.19 8.25899 21.3035 8.39877 21.3816 8.55851C21.4596 8.71825 21.5001 8.89371 21.5 9.0715V21.3332ZM19.1667 20.1665V9.64083L11 3.2895L2.83333 9.64083V20.1665H19.1667ZM5.16667 15.4998H16.8333V17.8332H5.16667V15.4998Z" fill="#1B3B36"/>
</svg>
