<svg width="18" height="18" viewBox="0 0 18 18" fill="none" xmlns="http://www.w3.org/2000/svg">
<path d="M9 18C4.0293 18 0 13.9707 0 9C0 4.0293 4.0293 0 9 0C13.9707 0 18 4.0293 18 9C18 13.9707 13.9707 18 9 18ZM9 16.2C10.9096 16.2 12.7409 15.4414 14.0912 14.0912C15.4414 12.7409 16.2 10.9096 16.2 9C16.2 7.09044 15.4414 5.25909 14.0912 3.90883C12.7409 2.55857 10.9096 1.8 9 1.8C7.09044 1.8 5.25909 2.55857 3.90883 3.90883C2.55857 5.25909 1.8 7.09044 1.8 9C1.8 10.9096 2.55857 12.7409 3.90883 14.0912C5.25909 15.4414 7.09044 16.2 9 16.2ZM8.1 9.7128C7.62624 9.50603 7.23812 9.14245 7.00091 8.68317C6.76369 8.2239 6.69185 7.69696 6.79746 7.19094C6.90307 6.68493 7.17969 6.23072 7.58081 5.90467C7.98193 5.57863 8.48308 5.40064 9 5.40064C9.51692 5.40064 10.0181 5.57863 10.4192 5.90467C10.8203 6.23072 11.0969 6.68493 11.2025 7.19094C11.3081 7.69696 11.2363 8.2239 10.9991 8.68317C10.7619 9.14245 10.3738 9.50603 9.9 9.7128V12.6H8.1V9.7128Z" fill="#34DB8A"/>
</svg>
