<svg width="31" height="31" viewBox="0 0 31 31" fill="none" xmlns="http://www.w3.org/2000/svg">
<path d="M9.42857 3.5V23.5H21.5714V3.5H9.42857ZM8.21429 1H22.7857C23.1078 1 23.4166 1.1317 23.6443 1.36612C23.8721 1.60054 24 1.91848 24 2.25V24.75C24 25.0815 23.8721 25.3995 23.6443 25.6339C23.4166 25.8683 23.1078 26 22.7857 26H8.21429C7.89224 26 7.58338 25.8683 7.35566 25.6339C7.12793 25.3995 7 25.0815 7 24.75V2.25C7 1.91848 7.12793 1.60054 7.35566 1.36612C7.58338 1.1317 7.89224 1 8.21429 1ZM15.5 19.75C15.822 19.75 16.1309 19.8817 16.3586 20.1161C16.5864 20.3505 16.7143 20.6685 16.7143 21C16.7143 21.3315 16.5864 21.6495 16.3586 21.8839C16.1309 22.1183 15.822 22.25 15.5 22.25C15.178 22.25 14.8691 22.1183 14.6414 21.8839C14.4136 21.6495 14.2857 21.3315 14.2857 21C14.2857 20.6685 14.4136 20.3505 14.6414 20.1161C14.8691 19.8817 15.178 19.75 15.5 19.75Z" fill="#34DB8A"/>
</svg>
