<svg width="31" height="31" viewBox="0 0 31 31" fill="none" xmlns="http://www.w3.org/2000/svg">
<g clip-path="url(#clip0_1384_7781)">
<path d="M25 10H26V20H25V23C25 23.2652 24.8946 23.5196 24.7071 23.7071C24.5196 23.8946 24.2652 24 24 24H6C5.73478 24 5.48043 23.8946 5.29289 23.7071C5.10536 23.5196 5 23.2652 5 23V7C5 6.73478 5.10536 6.48043 5.29289 6.29289C5.48043 6.10536 5.73478 6 6 6H24C24.2652 6 24.5196 6.10536 24.7071 6.29289C24.8946 6.48043 25 6.73478 25 7V10ZM23 20H17C15.6739 20 14.4021 19.4732 13.4645 18.5355C12.5268 17.5979 12 16.3261 12 15C12 13.6739 12.5268 12.4021 13.4645 11.4645C14.4021 10.5268 15.6739 10 17 10H23V8H7V22H23V20ZM24 18V12H17C16.2044 12 15.4413 12.3161 14.8787 12.8787C14.3161 13.4413 14 14.2044 14 15C14 15.7956 14.3161 16.5587 14.8787 17.1213C15.4413 17.6839 16.2044 18 17 18H24ZM17 14H20V16H17V14Z" fill="#34DB8A"/>
</g>
<defs>
<clipPath id="clip0_1384_7781">
<rect width="30" height="30" fill="white" transform="translate(0.667969 0.0263672) rotate(0.383044)"/>
</clipPath>
</defs>
</svg>
