<svg width="70" height="30" viewBox="0 0 70 30" fill="none" xmlns="http://www.w3.org/2000/svg">
<rect width="70" height="30" rx="15" fill="#186841"/>
<path d="M21.1263 22.9667C20.4063 22.9667 19.7263 22.8201 19.0863 22.5267C18.4463 22.2201 17.8929 21.8001 17.4263 21.2667C16.9729 20.7334 16.6463 20.1134 16.4463 19.4067L19.0663 18.7067C19.1996 19.2134 19.4729 19.6201 19.8863 19.9267C20.3129 20.2201 20.7596 20.3667 21.2263 20.3667C21.6396 20.3667 22.0129 20.2667 22.3463 20.0667C22.6929 19.8667 22.9663 19.6001 23.1663 19.2667C23.3796 18.9201 23.4863 18.5401 23.4863 18.1267C23.4863 17.7134 23.3796 17.3401 23.1663 17.0067C22.9663 16.6601 22.6929 16.3867 22.3463 16.1867C22.0129 15.9867 21.6396 15.8867 21.2263 15.8867C20.7196 15.8867 20.3063 15.9734 19.9863 16.1467C19.6663 16.3201 19.4263 16.4801 19.2663 16.6267L16.9663 15.9267L17.4063 8.26675H25.2663V10.8067H19.8063L19.6263 13.9467C19.9463 13.7734 20.2796 13.6467 20.6263 13.5667C20.9863 13.4867 21.3196 13.4467 21.6263 13.4467C22.5329 13.4467 23.3329 13.6467 24.0263 14.0467C24.7196 14.4467 25.2596 15.0001 25.6463 15.7067C26.0329 16.4134 26.2263 17.2201 26.2263 18.1267C26.2263 19.0334 25.9863 19.8534 25.5063 20.5867C25.0396 21.3201 24.4196 21.9001 23.6463 22.3267C22.8729 22.7534 22.0329 22.9667 21.1263 22.9667ZM33.2636 22.9667C32.1969 22.9667 31.2636 22.7467 30.4636 22.3067C29.6636 21.8534 29.0369 21.2267 28.5836 20.4267C28.1436 19.6267 27.9236 18.6934 27.9236 17.6267V13.3067C27.9236 12.2401 28.1436 11.3067 28.5836 10.5067C29.0369 9.70675 29.6636 9.08675 30.4636 8.64675C31.2636 8.19341 32.1969 7.96675 33.2636 7.96675C34.3303 7.96675 35.2636 8.19341 36.0636 8.64675C36.8636 9.08675 37.4836 9.70675 37.9236 10.5067C38.3769 11.3067 38.6036 12.2401 38.6036 13.3067V17.6267C38.6036 18.6934 38.3769 19.6267 37.9236 20.4267C37.4836 21.2267 36.8636 21.8534 36.0636 22.3067C35.2636 22.7467 34.3303 22.9667 33.2636 22.9667ZM33.2636 20.3867C33.7436 20.3867 34.1769 20.2734 34.5636 20.0467C34.9503 19.8201 35.2569 19.5134 35.4836 19.1267C35.7103 18.7401 35.8236 18.3067 35.8236 17.8267V13.0867C35.8236 12.6067 35.7103 12.1734 35.4836 11.7867C35.2569 11.4001 34.9503 11.0934 34.5636 10.8667C34.1769 10.6401 33.7436 10.5267 33.2636 10.5267C32.7836 10.5267 32.3503 10.6401 31.9636 10.8667C31.5769 11.0934 31.2703 11.4001 31.0436 11.7867C30.8169 12.1734 30.7036 12.6067 30.7036 13.0867V17.8267C30.7036 18.3067 30.8169 18.7401 31.0436 19.1267C31.2703 19.5134 31.5769 19.8201 31.9636 20.0467C32.3503 20.2734 32.7836 20.3867 33.2636 20.3867Z" fill="white"/>
<path d="M64 15C64 20.5228 59.5228 25 54 25C48.4772 25 44 20.5228 44 15C44 9.47715 48.4772 5 54 5C59.5228 5 64 9.47715 64 15Z" fill="#FFD600"/>
<path d="M50.4589 11.7315C52.1879 11.7315 53.1853 12.5764 53.1853 14.062C53.1853 15.6405 52.1879 16.5504 50.4589 16.5504H49.5374V18.2403H47.3335V11.7315H50.4589ZM50.3449 14.9163C50.8199 14.9163 51.0954 14.6284 51.0954 14.127C51.0954 13.6442 50.8199 13.3657 50.3449 13.3657H49.5374V14.9163H50.3449Z" fill="#186841"/>
<path d="M58.6719 16.3276V14.8141H60.5623V17.4975C59.8214 17.9803 58.5959 18.3332 57.6459 18.3332C55.556 18.3332 54.036 16.9218 54.036 14.9906C54.036 13.0685 55.613 11.6665 57.7884 11.6665C58.8239 11.6665 59.9543 12.0565 60.6668 12.6693L59.4224 14.1456C58.9759 13.7278 58.3299 13.4585 57.7789 13.4585C56.9239 13.4585 56.2969 14.1085 56.2969 14.9906C56.2969 15.8912 56.9334 16.5412 57.7979 16.5412C58.0259 16.5412 58.3489 16.4576 58.6719 16.3276Z" fill="#186841"/>
</svg>
