<svg width="21" height="22" viewBox="0 0 21 22" fill="none" xmlns="http://www.w3.org/2000/svg">
<path d="M10.1862 0H10.774C12.4523 0.048253 14.12 0.498753 15.5876 1.32904C17.633 2.47796 19.2827 4.3357 20.1842 6.52455C20.6866 7.72838 20.9516 9.02747 21 10.3324V10.9281C20.9504 12.5982 20.5242 14.2588 19.7322 15.7263C18.9578 17.1722 17.8492 18.4335 16.519 19.3761C14.8464 20.5749 12.8194 21.2413 10.774 21.2979H10.2264C8.48859 21.2459 6.76307 20.7642 5.2582 19.879C3.1176 18.6298 1.4335 16.5953 0.608672 14.233C0.23666 13.1855 0.0426563 12.0782 0 10.9672V10.3315C0.0500391 8.91224 0.363809 7.50001 0.951563 6.20925C1.81002 4.30492 3.24023 2.6743 4.99693 1.57654C6.55061 0.599003 8.36104 0.0623961 10.1862 0ZM9.74326 1.69801C8.48449 1.80408 7.24951 2.1901 6.14988 2.82072C4.75822 3.6144 3.586 4.79785 2.79768 6.20592C2.00443 7.61191 1.60412 9.24003 1.64514 10.8586C1.67508 12.3266 2.06801 13.785 2.78168 15.0624C3.41988 16.2113 4.31197 17.2138 5.37264 17.9763C7.035 19.1826 9.11941 19.7675 11.1567 19.6074C12.867 19.4859 14.5359 18.8403 15.8931 17.7783C17.0576 16.874 17.994 15.6706 18.5907 14.312C19.3762 12.5404 19.5624 10.5075 19.1301 8.6169C18.8463 7.36233 18.2885 6.17264 17.5112 5.15517C16.6175 3.98046 15.4325 3.0337 14.0934 2.43428C12.7366 1.81905 11.2235 1.57072 9.74326 1.69801Z" fill="#8F90A6"/>
<path d="M10.2028 5.67594C10.7615 5.52505 11.3926 5.83379 11.6234 6.37094C11.8455 6.84449 11.7283 7.45035 11.3473 7.80504C10.9186 8.22984 10.1804 8.25956 9.72287 7.86586C9.26858 7.50792 9.12936 6.81477 9.40825 6.30455C9.56991 5.99396 9.86621 5.76043 10.2028 5.67594Z" fill="#8F90A6"/>
<path d="M10.2815 8.78734C10.9979 8.67782 11.7434 9.11858 11.7311 9.64749C11.7367 11.5485 11.7317 13.4496 11.7342 15.3511C11.7515 15.6511 11.5546 15.9543 11.2096 16.1253C10.8468 16.3136 10.3407 16.3403 9.94389 16.1925C9.53349 16.0465 9.25887 15.7255 9.26566 15.3951C9.26504 13.4794 9.26319 11.5632 9.26689 9.64749C9.26381 9.23389 9.7174 8.85368 10.2815 8.78734Z" fill="#8F90A6"/>
</svg>
