<svg width="31" height="31" viewBox="0 0 31 31" fill="none" xmlns="http://www.w3.org/2000/svg">
<path d="M6.2308 4.68848H25.5376C25.8221 4.68848 26.0949 4.80059 26.2961 5.00014C26.4972 5.1997 26.6102 5.47035 26.6102 5.75256V22.778C26.6102 23.0602 26.4972 23.3308 26.2961 23.5304C26.0949 23.7299 25.8221 23.8421 25.5376 23.8421H6.2308C5.94633 23.8421 5.67351 23.7299 5.47236 23.5304C5.27121 23.3308 5.1582 23.0602 5.1582 22.778V5.75256C5.1582 5.47035 5.27121 5.1997 5.47236 5.00014C5.67351 4.80059 5.94633 4.68848 6.2308 4.68848ZM24.465 13.2012H7.3034V21.7139H24.465V13.2012ZM24.465 11.073V6.81665H7.3034V11.073H24.465ZM18.0294 17.4575H22.3198V19.5857H18.0294V17.4575Z" fill="#34DB8A"/>
</svg>
