<svg width="10" height="10" viewBox="0 0 10 10" fill="none" xmlns="http://www.w3.org/2000/svg">
<path d="M5.30716 5.30378L8.90335 1.82772C9.11034 1.62764 9.11034 1.30424 8.90335 1.10416C8.69635 0.904082 8.36178 0.904082 8.15479 1.10416L4.5586 4.58022L0.962399 1.10416C0.755405 0.904082 0.420833 0.904082 0.213839 1.10416C0.00684527 1.30424 0.00684527 1.62764 0.213839 1.82772L3.81002 5.30378L0.213839 8.77984C0.00684527 8.97992 0.00684527 9.30332 0.213839 9.5034C0.317072 9.60318 0.452596 9.65332 0.588119 9.65332C0.723643 9.65332 0.859166 9.60317 0.962399 9.5034L4.55858 6.02734L8.15477 9.5034C8.258 9.60318 8.39353 9.65332 8.52905 9.65332C8.66457 9.65332 8.8001 9.60317 8.90333 9.5034C9.11032 9.30332 9.11032 8.97992 8.90333 8.77984L5.30716 5.30378Z" fill="#64668F"/>
</svg>
