<svg width="40" height="40" viewBox="0 0 40 40" fill="none" xmlns="http://www.w3.org/2000/svg">
<path fill-rule="evenodd" clip-rule="evenodd" d="M25.4232 25.8357C24.74 26.4938 23.6643 26.5011 22.9843 25.8461L19.4954 22.4856L16.0157 25.8373C15.3287 26.4991 14.2638 26.4991 13.5768 25.8373C13.2149 25.4888 13 24.9937 13 24.4581C13 23.9226 13.2149 23.4275 13.5768 23.0789L17.1183 19.6677L13.5768 16.2564C13.2149 15.9079 13 15.4127 13 14.8772C13 14.3417 13.2149 13.8465 13.5768 13.498C14.26 12.8399 15.3357 12.8325 16.0157 13.4875L19.5046 16.8481L22.9843 13.4963C23.6713 12.8346 24.7362 12.8346 25.4232 13.4963C25.7851 13.8449 26 14.34 26 14.8755C26 15.4111 25.7851 15.9062 25.4232 16.2547L21.8817 19.666L25.4232 23.0773C25.7851 23.4258 26 23.9209 26 24.4565C26 24.992 25.7851 25.4871 25.4232 25.8357Z" fill="#CDCDDD"/>
</svg>

