<svg width="24" height="25" viewBox="0 0 24 25" fill="none" xmlns="http://www.w3.org/2000/svg">
<path d="M18 19.5C20.2091 19.5 22 17.7091 22 15.5V15.5C22 13.2909 20.2091 11.5 18 11.5V11.5C18 8.18629 15.3137 5.5 12 5.5V5.5C9.43218 5.50126 7.15001 7.13692 6.3238 9.56818C3.85166 9.89889 2.00446 12.0058 2 14.5H2C2 17.2614 4.23858 19.5 7 19.5" stroke="#34DB8A" stroke-width="1.5" stroke-linecap="round" stroke-linejoin="round"/>
<path d="M7 19.5H8" stroke="#30CC7F" stroke-width="1.5" stroke-linecap="round" stroke-linejoin="round"/>
<path d="M18 19.5H16" stroke="#30CC7F" stroke-width="1.5" stroke-linecap="round" stroke-linejoin="round"/>
<path d="M12 18.5L14 16.5" stroke="#30CC7F" stroke-width="1.5" stroke-linecap="round" stroke-linejoin="round"/>
<path d="M10 16.5L12 18.5" stroke="#30CC7F" stroke-width="1.5" stroke-linecap="round" stroke-linejoin="round"/>
<path d="M12 13.5V18.5" stroke="#30CC7F" stroke-width="1.5" stroke-linecap="round" stroke-linejoin="round"/>
</svg>
