<svg width="31" height="31" viewBox="0 0 31 31" fill="none" xmlns="http://www.w3.org/2000/svg">
<g clip-path="url(#clip0_566_8019)">
<path d="M3.06268 4.68728C5.06176 3.66351 7.3614 3.34489 9.58526 3.49394C11.8571 3.64507 14.1365 4.34763 15.9618 5.7374C16.9923 4.97201 18.1755 4.42444 19.4066 4.06997C21.3704 3.51004 23.4587 3.42028 25.4728 3.73844C27.2615 4.03693 29.023 4.71728 30.4191 5.89617C30.6381 6.09334 30.9022 6.28906 30.9564 6.59939L30.8253 26.2032C30.7971 26.3964 30.6974 26.5827 30.5279 26.6864C30.2849 26.8483 29.9353 26.8108 29.7316 26.6014C29.0121 25.897 28.1136 25.4023 27.1832 25.0357C25.3153 24.3171 23.2602 24.1686 21.2862 24.4279C19.6675 24.6532 18.0741 25.2057 16.7306 26.1477C16.5341 26.2794 16.3654 26.4458 16.1746 26.5852C15.9462 26.7436 15.6129 26.7197 15.4068 26.5332C14.7684 25.9594 14.0184 25.5213 13.2367 25.1733C11.2491 24.2969 9.01713 24.0535 6.87028 24.3063C5.23235 24.5104 3.60033 25.0585 2.28858 26.0816C2.03896 26.2581 1.85695 26.5756 1.52283 26.5939C1.18273 26.6314 0.866982 26.3569 0.825856 26.0226L0.956937 6.41582C0.985037 6.24432 1.07336 6.09198 1.20129 5.97564C1.74623 5.449 2.39062 5.03377 3.06268 4.68728ZM7.23084 4.81827C5.4418 5.01432 3.63844 5.59759 2.24367 6.76837C2.20507 12.7173 2.16179 18.6656 2.12612 24.6145C4.23228 23.2615 6.8082 22.8112 9.27884 22.9466C11.3541 23.0572 13.4269 23.63 15.1896 24.7487C15.2313 18.8555 15.2666 12.9622 15.3101 7.06901C15.2983 6.99159 15.3412 6.88406 15.2607 6.83313C14.6755 6.3669 14.0188 5.99512 13.3347 5.69464C11.4265 4.86156 9.29362 4.60823 7.23084 4.81827ZM21.3518 4.97303C19.6515 5.22417 17.9705 5.81997 16.6011 6.87784C16.5565 12.8384 16.5202 18.799 16.4792 24.7602C18.422 23.558 20.7266 23.0261 22.9972 23.0213C25.2813 23.0103 27.6223 23.524 29.5445 24.7978C29.5872 18.8483 29.6246 12.8994 29.6649 6.94994C28.8278 6.22069 27.814 5.71644 26.7627 5.3766C25.022 4.8253 23.1547 4.72551 21.3518 4.97303Z" fill="white"/>
<path d="M20.6567 8.42443C20.7436 8.40567 20.8332 8.40685 20.9223 8.40569C22.5072 8.4198 24.0922 8.42513 25.6771 8.44041C25.9712 8.43593 26.2463 8.6616 26.3012 8.95026C26.397 9.33821 26.0568 9.74493 25.6597 9.72528C24.0595 9.71986 22.4593 9.70506 20.8592 9.69553C20.5368 9.71857 20.2196 9.47973 20.1719 9.15714C20.1091 8.83503 20.3364 8.4926 20.6567 8.42443Z" fill="white"/>
<path d="M6.0375 13.1904C6.16304 13.1684 6.29073 13.1763 6.41729 13.176C7.96411 13.1892 9.5104 13.1949 11.0572 13.2099C11.3262 13.2094 11.5774 13.4015 11.6542 13.6581C11.7461 13.9335 11.6203 14.2614 11.3674 14.4044C11.2173 14.4989 11.0345 14.4977 10.8634 14.4965C9.3014 14.482 7.73869 14.4792 6.17666 14.4617C5.85083 14.4677 5.55148 14.1944 5.53374 13.8679C5.50242 13.5578 5.73241 13.2499 6.0375 13.1904Z" fill="white"/>
<path d="M20.7 18.1416C22.3331 18.1414 23.9666 18.1593 25.6001 18.1708C25.9418 18.1614 26.2515 18.4594 26.2498 18.8021C26.2651 19.155 25.9459 19.4757 25.5915 19.4569C23.972 19.4473 22.3519 19.4382 20.7325 19.4239C20.3826 19.4303 20.0766 19.1066 20.0982 18.7593C20.1021 18.4388 20.3794 18.1523 20.7 18.1416Z" fill="white"/>
<path d="M6.17388 8.31114C7.81216 8.31623 9.45039 8.32953 11.0886 8.34341C11.425 8.34039 11.7212 8.64355 11.7166 8.97868C11.7278 9.32505 11.4186 9.63705 11.0718 9.6277C9.45113 9.62097 7.82988 9.60955 6.20923 9.59578C5.88458 9.60181 5.5858 9.32969 5.56688 9.00495C5.52761 8.65663 5.82343 8.31759 6.17388 8.31114Z" fill="#33DA8A"/>
<path d="M20.6746 13.282C22.3288 13.2714 23.9845 13.2994 25.6397 13.3064C25.9814 13.2964 26.287 13.6008 26.2824 13.9418C26.2947 14.2928 25.9773 14.6054 25.6265 14.5919C24.0257 14.587 22.4244 14.5722 20.8236 14.5621C20.5018 14.5828 20.1858 14.344 20.1393 14.0214C20.0725 13.6817 20.3315 13.3236 20.6746 13.282Z" fill="#33DA8A"/>
<path d="M6.11179 18.043C7.72842 18.0438 9.34611 18.0623 10.9633 18.0719C11.2921 18.0507 11.6133 18.3048 11.6462 18.6366C11.7041 19.005 11.3817 19.372 11.008 19.3589C9.38613 19.351 7.7637 19.3396 6.1413 19.3264C5.84886 19.3327 5.57612 19.1117 5.51532 18.8271C5.41703 18.4538 5.72561 18.048 6.11179 18.043Z" fill="#33DA8A"/>
</g>
<defs>
<clipPath id="clip0_566_8019">
<rect width="30" height="30" fill="white" transform="translate(0.999756) rotate(0.383044)"/>
</clipPath>
</defs>
</svg>
