<svg width="30" height="30" viewBox="0 0 30 30" fill="none" xmlns="http://www.w3.org/2000/svg">
<g clip-path="url(#clip0_566_8011)">
<path d="M14.358 1.8716C14.3451 1.54523 14.6152 1.24172 14.9415 1.22062C15.2837 1.17902 15.6236 1.46203 15.6382 1.80773C15.6581 2.51496 15.6335 3.22277 15.6482 3.92941C15.6435 4.15031 15.8351 4.3507 16.0566 4.35363C16.6126 4.3759 17.1705 4.34191 17.7265 4.36828C18.5134 4.4298 19.2142 5.03683 19.3988 5.80207C19.6238 6.62941 19.2037 7.56633 18.4425 7.95715C17.8917 8.26945 17.2414 8.16691 16.6378 8.1839C16.3941 8.19445 16.141 8.15051 15.9042 8.21965C15.7285 8.29289 15.6318 8.48449 15.6453 8.66965C15.6435 9.6259 15.6453 10.5827 15.6447 11.5396C15.2152 11.529 14.7851 11.5255 14.3556 11.5396C14.3556 10.5827 14.3556 9.6259 14.3556 8.66906C14.3544 8.40363 14.4001 8.13527 14.5156 7.89445C14.7751 7.32258 15.3681 6.91769 15.9974 6.89777C16.5195 6.88547 17.0427 6.9048 17.5648 6.89074C17.8677 6.88664 18.1408 6.6341 18.1642 6.33176C18.2081 5.99367 17.9234 5.65676 17.5812 5.65207C17.0538 5.63742 16.5265 5.66086 15.9997 5.64269C15.3693 5.62043 14.7746 5.2173 14.515 4.64367C14.3902 4.38586 14.3509 4.0964 14.355 3.81222C14.3585 3.16535 14.3515 2.51847 14.358 1.8716Z" fill="#33DA8A"/>
<path d="M11.2583 13.2031C11.6216 13.1023 12.0007 13.0555 12.3745 13.0021C12.4337 12.9992 12.4929 12.9969 12.5526 12.9951C12.6909 13.584 13.138 14.0639 13.6489 14.3656C14.5044 14.8642 15.6364 14.8385 16.4661 14.2959C16.9237 13.9912 17.3198 13.5394 17.4481 12.9951C17.529 12.9945 17.6104 12.9939 17.6919 12.9969C18.0493 13.049 18.405 13.1105 18.7601 13.1785C18.5515 13.9719 18.0804 14.6937 17.4282 15.1924C16.7397 15.7267 15.869 16.0156 14.9983 16.0121C13.9085 16.0162 12.8192 15.5539 12.0862 14.7435C11.6919 14.3182 11.42 13.7949 11.2495 13.243L11.2583 13.2031Z" fill="#33DA8A"/>
<path d="M5.82544 17.9438C5.87642 17.4153 6.31997 16.9559 6.84732 16.8897C7.1022 16.8604 7.36001 16.8804 7.61607 16.8751C7.91724 16.8809 8.23365 16.8411 8.51841 16.9624C8.93677 17.1265 9.24439 17.5413 9.27017 17.9913C9.28365 18.2503 9.27427 18.5104 9.2731 18.77C9.56079 18.7835 9.85025 18.7571 10.1368 18.787C10.6934 18.8544 11.1557 19.3583 11.1715 19.9196C11.1774 20.3098 11.1774 20.7007 11.1715 21.0915C11.1534 21.6306 10.7256 22.1181 10.1948 22.21C9.89126 22.2563 9.58189 22.2265 9.27603 22.2341C9.26958 22.5188 9.29009 22.8048 9.26255 23.0884C9.20044 23.6421 8.70357 24.1032 8.1481 24.1278C7.75376 24.1366 7.35943 24.1348 6.96509 24.129C6.40611 24.1143 5.90337 23.6573 5.83072 23.1042C5.80259 22.8159 5.82193 22.5259 5.81841 22.237C5.52076 22.2247 5.22076 22.254 4.92486 22.2153C4.40572 22.138 3.97212 21.6809 3.92642 21.1577C3.90591 20.8835 3.92232 20.6081 3.91704 20.3333C3.91939 20.0766 3.89654 19.8095 3.99146 19.5651C4.14732 19.128 4.57564 18.8028 5.04087 18.7782C5.29927 18.7671 5.55767 18.7765 5.81665 18.7735C5.82075 18.497 5.80611 18.2198 5.82544 17.9438ZM7.10454 18.1659C7.1022 18.5532 7.11392 18.9411 7.09986 19.3284C7.08404 19.7052 6.75826 20.0362 6.3815 20.0567C5.98951 20.0743 5.59634 20.052 5.20376 20.0673C5.20845 20.3602 5.20552 20.6526 5.20611 20.9456C5.59165 20.9491 5.97779 20.9391 6.36333 20.9491C6.74888 20.9602 7.08755 21.2989 7.09986 21.685C7.11392 22.0706 7.10161 22.4573 7.10513 22.8434C7.39868 22.844 7.69283 22.8434 7.98638 22.844C7.99048 22.4614 7.98111 22.0788 7.99048 21.6962C7.9981 21.2989 8.35142 20.9497 8.74927 20.9479C9.12662 20.9421 9.50396 20.945 9.88189 20.9485C9.89009 20.6532 9.88482 20.3579 9.88599 20.0626C9.50161 20.0591 9.11724 20.0696 8.73345 20.0585C8.34556 20.0479 8.00396 19.7087 7.99107 19.3208C7.98052 18.9352 7.99048 18.5497 7.98697 18.1641C7.69283 18.1641 7.39868 18.163 7.10454 18.1659Z" fill="#33DA8A"/>
<path d="M20.7562 17.925C20.8142 17.3971 21.266 16.9454 21.7939 16.8868C22.0482 16.8622 22.3049 16.8797 22.5603 16.875C22.8539 16.8803 23.1615 16.8434 23.4398 16.96C23.8599 17.1211 24.1699 17.5366 24.1974 17.9866C24.2121 18.2485 24.2004 18.511 24.2033 18.7735C24.4699 18.7776 24.7365 18.7653 25.0025 18.7799C25.4396 18.8122 25.8392 19.1081 26.0068 19.5112C26.1386 19.8071 26.0965 20.1387 26.1029 20.4534C26.0976 20.703 26.117 20.9538 26.0883 21.2028C26.0209 21.7149 25.5867 22.1508 25.074 22.2182C24.7845 22.2516 24.4922 22.2252 24.2009 22.2375C24.1998 22.5241 24.2179 22.8118 24.1898 23.0971C24.123 23.6432 23.6343 24.0991 23.0847 24.1272C22.6939 24.1383 22.3031 24.1331 21.9123 24.1301C21.4359 24.1225 20.9883 23.7991 20.8236 23.3538C20.6877 22.9946 20.7691 22.6043 20.7381 22.2311C20.4486 22.2305 20.1574 22.2498 19.8691 22.2176C19.34 22.1461 18.8953 21.6815 18.8537 21.1483C18.8343 20.8758 18.8502 20.6028 18.8449 20.3297C18.8478 20.0778 18.8244 19.8159 18.9158 19.5756C19.0664 19.1426 19.4818 18.8163 19.94 18.7805C20.2078 18.7653 20.4761 18.777 20.7445 18.7735C20.7498 18.4905 20.731 18.2069 20.7562 17.925ZM22.0336 18.1641C22.0283 18.5561 22.0435 18.9481 22.0265 19.3395C22.006 19.728 21.655 20.059 21.266 20.0596C20.8886 20.069 20.5107 20.0579 20.1334 20.0643C20.1351 20.3579 20.134 20.6514 20.1345 20.9456C20.5242 20.9491 20.9138 20.9379 21.3035 20.9497C21.6802 20.9678 22.0101 21.2971 22.0271 21.6739C22.0429 22.0635 22.0283 22.4543 22.0341 22.8446C22.3277 22.8434 22.6213 22.844 22.9148 22.844C22.9201 22.4538 22.906 22.0629 22.9207 21.6733C22.9377 21.2889 23.2816 20.9555 23.666 20.9485C24.048 20.9397 24.4312 20.9485 24.8138 20.9456C24.8144 20.6514 24.8133 20.3579 24.815 20.0637C24.4342 20.0579 24.0539 20.0696 23.6736 20.059C23.2875 20.0549 22.9406 19.7239 22.9213 19.3383C22.9054 18.9469 22.9195 18.5555 22.9148 18.1641C22.6213 18.1641 22.3271 18.1641 22.0336 18.1641Z" fill="#33DA8A"/>
<path d="M5.59219 13.977C8.23945 12.4261 11.2986 11.638 14.3555 11.5395C14.785 11.5255 15.215 11.529 15.6445 11.5395C17.5166 11.5946 19.3846 11.8929 21.1658 12.4747C23.7111 13.3091 26.1322 14.7153 27.8438 16.8077C29.0965 18.3083 29.9303 20.195 30 22.1632V22.602C29.9502 23.8278 29.5576 25.0419 28.848 26.0456C27.7693 27.6019 25.9752 28.6372 24.0832 28.7638C23.0016 28.864 21.9205 28.6026 20.935 28.1702C19.8539 27.6962 18.8162 27.1261 17.7117 26.7054C16.8311 26.3579 15.8959 26.0983 14.9414 26.1171C13.7689 26.1335 12.6498 26.5401 11.5857 26.9978C10.7941 27.3399 10.0242 27.7284 9.25371 28.1151C7.97754 28.7485 6.48809 28.9419 5.09355 28.6489C3.54844 28.3349 2.14219 27.4155 1.21875 26.1394C0.46875 25.1181 0.0486328 23.8677 0 22.6032V22.0542C0.0779297 20.6702 0.476367 19.3044 1.18184 18.1097C1.66348 17.2765 2.30625 16.5481 3.00645 15.8919C3.79277 15.1589 4.66465 14.5196 5.59219 13.977ZM12.8402 12.9399C12.6844 12.9569 12.5232 12.9464 12.3744 13.002C12.0006 13.0554 11.6215 13.1022 11.2582 13.203L11.2494 13.2429L11.2107 13.2194C11.1047 13.2007 11.001 13.2511 10.8979 13.2675C8.61035 13.786 6.40078 14.7522 4.57031 16.2341C3.90762 16.7743 3.29063 17.3755 2.7668 18.0522C2.03613 19.0173 1.54863 20.1663 1.36699 21.3634C1.22402 22.2856 1.26621 23.2507 1.6002 24.1296C2.09414 25.4784 3.18105 26.5923 4.51406 27.1261C5.57344 27.5585 6.7793 27.6077 7.87383 27.2778C8.51719 27.0915 9.09141 26.7382 9.69375 26.4546C11.0449 25.8065 12.4271 25.1614 13.9178 24.9171C15.1477 24.7138 16.4168 24.886 17.5875 25.295C18.8168 25.6999 19.9676 26.2999 21.1359 26.8507C21.9129 27.2116 22.7484 27.5034 23.6162 27.4935C24.798 27.4929 25.9688 27.054 26.8705 26.2923C27.8484 25.4767 28.5117 24.289 28.6693 23.0233C28.8123 21.828 28.5568 20.6075 28.0506 19.5229C27.2607 17.8478 25.9318 16.4679 24.4078 15.4378C22.7033 14.311 20.7592 13.5745 18.76 13.1784C18.4049 13.1104 18.0492 13.0489 17.6918 12.9968C16.0863 12.7853 14.451 12.7606 12.8402 12.9399Z" fill="white"/>
</g>
<defs>
<clipPath id="clip0_566_8011">
<rect width="30" height="30" fill="white"/>
</clipPath>
</defs>
</svg>
