<svg width="20" height="21" viewBox="0 0 20 21" fill="none" xmlns="http://www.w3.org/2000/svg">
<g clip-path="url(#clip0_313_4048)">
<path d="M4.43242 12.1129L3.73625 14.7118L1.19176 14.7656C0.431328 13.3552 0 11.7415 0 10.0266C0 8.3684 0.403281 6.80465 1.11812 5.42773H1.11867L3.38398 5.84305L4.37633 8.09477C4.16863 8.70027 4.05543 9.35027 4.05543 10.0266C4.05551 10.7607 4.18848 11.464 4.43242 12.1129Z" fill="#FBBB00"/>
<path d="M19.8252 8.02686C19.94 8.63178 19.9999 9.2565 19.9999 9.89498C19.9999 10.6109 19.9246 11.3093 19.7812 11.9829C19.2944 14.2752 18.0224 16.2769 16.2604 17.6933L16.2598 17.6928L13.4065 17.5472L13.0027 15.0263C14.1719 14.3406 15.0857 13.2675 15.567 11.9829H10.2197V8.02686H15.645H19.8252Z" fill="#518EF8"/>
<path d="M16.26 17.8248L16.2606 17.8254C14.5469 19.2028 12.3699 20.027 10.0001 20.027C6.19189 20.027 2.88092 17.8984 1.19189 14.766L4.43256 12.1133C5.27705 14.3671 7.45123 15.9715 10.0001 15.9715C11.0957 15.9715 12.1221 15.6754 13.0029 15.1583L16.26 17.8248Z" fill="#28B446"/>
<path d="M16.2648 2.32904L13.0253 4.98123C12.1138 4.41146 11.0363 4.08232 9.88188 4.08232C7.27527 4.08232 5.06043 5.76033 4.25824 8.09498L1.00055 5.42795H1C2.6643 2.21916 6.01703 0.0268555 9.88188 0.0268555C12.3082 0.0268555 14.533 0.891152 16.2648 2.32904Z" fill="#F14336"/>
</g>
<defs>
<clipPath id="clip0_313_4048">
<rect width="20" height="20" fill="white" transform="translate(0 0.0268555)"/>
</clipPath>
</defs>
</svg>
