<svg width="32" height="31" viewBox="0 0 32 31" fill="none" xmlns="http://www.w3.org/2000/svg">
<g clip-path="url(#clip0_2234_16128)">
<g clip-path="url(#clip1_2234_16128)">
<path d="M22.0835 11.6663L27.2168 24.4997H24.7027L23.3015 20.9997H18.5298L17.131 24.4997H14.618L19.7502 11.6663H22.0835ZM12.1668 2.33301V4.66634H19.1668V6.99967H16.8708C15.9709 9.70876 14.5346 12.2089 12.6475 14.3508C13.489 15.1017 14.4018 15.7687 15.3728 16.3423L14.4967 18.5333C13.2431 17.8224 12.0707 16.977 11.0002 16.0122C8.91601 17.8984 6.44788 19.3106 3.76566 20.1515L3.14033 17.901C5.43847 17.1682 7.55619 15.9589 9.35516 14.352C8.02363 12.8446 6.91457 11.1545 6.06166 9.33301H8.675C9.32524 10.5333 10.1049 11.6589 11.0002 12.6895C12.4586 11.0085 13.608 9.08253 14.3952 7.00084L2.8335 6.99967V4.66634H9.8335V2.33301H12.1668ZM20.9168 15.0322L19.462 18.6663H22.3693L20.9168 15.0322Z" fill="#34DB8A"/>
</g>
</g>
<defs>
<clipPath id="clip0_2234_16128">
<rect width="30" height="30" fill="white" transform="translate(1.16846 0.0263672) rotate(0.383044)"/>
</clipPath>
<clipPath id="clip1_2234_16128">
<rect width="28" height="28" fill="white" transform="translate(0.5)"/>
</clipPath>
</defs>
</svg>
