<svg width="93" height="144" viewBox="0 0 93 144" fill="none" xmlns="http://www.w3.org/2000/svg">
<g id="Group">
<path id="Vector" d="M7.33034 37.5899C26.5064 37.5899 42.1076 53.191 42.1076 72.3671V79.26H50.3373V72.3671C50.3373 53.191 65.9385 37.5899 85.1148 37.5899H91.6708C89.8796 27.9206 85.0698 19.2981 78.258 12.7402L46.2226 44.7756L14.1872 12.7402C7.37506 19.2984 2.56528 27.9206 0.774414 37.5899H7.33034Z" fill="#F2C94C"/>
<path id="Vector_2" d="M46.2238 32.8421L71.631 7.4349C65.4421 3.34659 58.2179 0.70684 50.4429 0V17.8069H42.0047V0C34.2295 0.70684 27.0055 3.34659 20.8164 7.4349L46.2238 32.8421Z" fill="#1E8251"/>
<path id="Vector_3" d="M85.1148 46.0283C70.5912 46.0283 58.7755 57.8441 58.7755 72.3673V79.2602H62.8905V87.6984H29.5542V79.2602H33.6693V72.3673C33.6693 57.8441 21.8535 46.0283 7.33027 46.0283H0V68.0934C0 99.117 16.9408 127.578 44.2111 142.37L46.2228 143.461L48.2342 142.37C75.5045 127.578 92.4453 99.117 92.4453 68.0934V46.0283H85.1148ZM70.2244 59.8141H84.1146V68.2523H70.2244V59.8141ZM28.5785 109.952C28.653 109.83 30.4366 106.918 33.2873 104.021C37.4817 99.7569 41.8338 97.595 46.2225 97.595C50.6109 97.595 54.9631 99.7569 59.1574 104.021C62.0081 106.918 63.792 109.829 63.8662 109.952L65.2006 112.145L63.8662 114.338C63.7914 114.46 62.0081 117.371 59.1574 120.269C54.9631 124.533 50.6109 126.694 46.2225 126.694C41.8335 126.694 37.4817 124.533 33.2873 120.269C30.4366 117.371 28.653 114.46 28.5785 114.338L27.2442 112.145L28.5785 109.952ZM8.33048 59.8141H22.2206V68.2523H8.33048V59.8141Z" fill="#34DB8A"/>
<path id="Vector_4" d="M46.2192 118.257C49.359 118.257 52.8887 114.921 55.0931 112.153C52.9911 109.51 49.4884 106.033 46.2192 106.033C43.0791 106.033 39.5493 109.369 37.3447 112.137C39.4442 114.777 42.9485 118.257 46.2192 118.257Z" fill="#EB5757"/>
</g>
</svg>
