<svg width="26" height="25" viewBox="0 0 26 25" fill="none" xmlns="http://www.w3.org/2000/svg">
<path d="M19.5029 12.5002C19.5029 12.7765 19.2789 13.0004 19.0026 13.0004C18.7264 13.0004 18.5024 12.7765 18.5024 12.5002C18.5024 12.224 18.7264 12 19.0026 12C19.2789 12 19.5029 12.224 19.5029 12.5002" stroke="#2BB572" stroke-width="1.5" stroke-linecap="round" stroke-linejoin="round"/>
<path d="M13.5004 12.5002C13.5004 12.7765 13.2765 13.0004 13.0002 13.0004C12.724 13.0004 12.5 12.7765 12.5 12.5002C12.5 12.224 12.724 12 13.0002 12C13.2765 12 13.5004 12.224 13.5004 12.5002" stroke="#2BB572" stroke-width="1.5" stroke-linecap="round" stroke-linejoin="round"/>
<path d="M7.49773 12.5002C7.49773 12.7765 7.27378 13.0004 6.99752 13.0004C6.72127 13.0004 6.49731 12.7765 6.49731 12.5002C6.49731 12.224 6.72127 12 6.99752 12C7.27378 12 7.49773 12.224 7.49773 12.5002" stroke="#2BB572" stroke-width="1.5" stroke-linecap="round" stroke-linejoin="round"/>
</svg>
