<svg width="25" height="24" viewBox="0 0 25 24" fill="none" xmlns="http://www.w3.org/2000/svg">
<path d="M5.38871 21.5909C5.79028 21.8815 6.29074 22.0009 6.78001 21.9226C7.26927 21.8444 7.70725 21.5751 7.9976 21.1738L4.96936 18.9824C4.67901 19.3836 4.56008 19.8839 4.63872 20.3731C4.71736 20.8623 4.98714 21.3003 5.38871 21.5909Z" fill="#FEFEFE"/>
<path d="M14.6722 22.9878C14.8296 22.891 14.9547 22.7497 15.0316 22.5818C15.1086 22.4139 15.134 22.2269 15.1046 22.0444L14.7467 19.818L17.8043 15.5928C18.7235 14.3195 19.1531 12.7576 19.0145 11.1929C18.876 9.62808 18.1786 8.165 17.0499 7.0713L17.6411 6.25439C17.7862 6.05378 17.8457 5.80366 17.8064 5.55907C17.7671 5.31447 17.6322 5.09543 17.4314 4.95013C17.2306 4.80483 16.9804 4.74517 16.7357 4.78428C16.4911 4.82339 16.2721 4.95806 16.1269 5.15867L15.5358 5.97559C14.1441 5.24536 12.5363 5.04027 11.0066 5.39783C9.47694 5.75539 8.12763 6.65169 7.20552 7.92277L4.14784 12.148L1.92116 12.504C1.73876 12.5332 1.56916 12.6158 1.4338 12.7414C1.29843 12.867 1.20338 13.0299 1.16066 13.2095C1.11794 13.3892 1.12947 13.5775 1.19379 13.7507C1.25811 13.9239 1.37233 14.0742 1.52202 14.1825L13.635 22.9483C13.7847 23.0566 13.9631 23.1182 14.1477 23.1253C14.3324 23.1323 14.5149 23.0845 14.6722 22.9878ZM4.44432 13.9923L4.82652 13.9312C5.07114 13.8921 5.29014 13.7575 5.43534 13.5569L8.71964 9.01848C9.44551 8.01543 10.5405 7.34206 11.7636 7.14651C12.9868 6.95095 14.2379 7.24924 15.2419 7.97574C16.2458 8.70225 16.9202 9.79746 17.1168 11.0204C17.3134 12.2434 17.0161 13.494 16.2902 14.497L13.0059 19.0355C12.8608 19.2361 12.8014 19.4862 12.8408 19.7308L12.9022 20.1129L4.44432 13.9923Z" fill="#FEFEFE"/>
</svg>
