<svg width="34" height="30" viewBox="0 0 34 30" fill="none" xmlns="http://www.w3.org/2000/svg">
<path fill-rule="evenodd" clip-rule="evenodd" d="M26.262 0.48815C25.9495 0.1756 25.5255 0 25.0835 0H8.41685C7.97481 0 7.5509 0.1756 7.23833 0.48815L0.571665 7.15482C-0.0148187 7.74132 -0.0808021 8.6698 0.416848 9.33333L15.4169 29.3333C15.7315 29.753 16.2255 30 16.7502 30C17.2747 30 17.7687 29.753 18.0835 29.3333L33.0835 9.33333C33.5812 8.6698 33.5152 7.74132 32.9287 7.15482L26.262 0.48815ZM24.3932 3.33333L29.5495 8.48973L16.7502 25.5555L3.95081 8.48973L9.1072 3.33333H24.3932Z" fill="#1E8251"/>
</svg>
