<svg width="18" height="18" viewBox="0 0 18 18" fill="none" xmlns="http://www.w3.org/2000/svg">
<g clip-path="url(#clip0_604_7345)">
<path d="M7.38152 0H10.5906C10.9608 0.0379688 11.319 0.211992 11.5563 0.502031C11.7152 0.69082 11.8207 0.9225 11.8636 1.16543C11.9205 1.49238 11.9708 1.82109 12.0292 2.14805C12.0784 2.42895 12.2489 2.68523 12.4883 2.83992C12.7513 3.01395 13.0934 3.06035 13.3925 2.95945C13.5915 2.89125 13.7866 2.8125 13.9842 2.74043C14.2394 2.64902 14.4912 2.52633 14.7671 2.51789C15.2818 2.48555 15.7965 2.7675 16.0514 3.21434C16.4898 3.9709 16.9261 4.72852 17.3634 5.48543C17.4844 5.70023 17.6278 5.90906 17.6826 6.1534C17.8064 6.64172 17.6384 7.1884 17.2615 7.52273C16.9964 7.7516 16.7208 7.96746 16.4532 8.19316C16.2729 8.34363 16.1449 8.55527 16.0989 8.7859C16.0222 9.14098 16.1463 9.53156 16.4174 9.77449C16.5794 9.91723 16.7503 10.0498 16.9159 10.1883C17.1244 10.3651 17.3582 10.524 17.5026 10.762C17.779 11.186 17.7944 11.7608 17.5434 12.2003C17.0481 13.063 16.5492 13.9243 16.0514 14.786C15.7902 15.243 15.2576 15.5264 14.7323 15.4793C14.4258 15.4579 14.1494 15.3116 13.8633 15.2142C13.5834 15.1196 13.3092 14.9646 13.0048 14.9889C12.5491 15.0086 12.1322 15.358 12.0387 15.8055C11.9722 16.155 11.9226 16.508 11.8587 16.8581C11.7961 17.1907 11.6091 17.4987 11.3408 17.7054C11.1274 17.8755 10.862 17.9662 10.5937 18H7.46554C6.86683 17.9824 6.31066 17.5433 6.16476 16.9611C6.07546 16.5614 6.03714 16.1518 5.94749 15.7525C5.81144 15.2216 5.21308 14.8732 4.68398 15.018C4.31097 15.1351 3.95238 15.2937 3.58183 15.4185C3.09984 15.576 2.53874 15.4417 2.1805 15.0831C2.0121 14.9245 1.9091 14.7146 1.79378 14.5181C1.36874 13.7827 0.945111 13.0468 0.519721 12.3117C0.425502 12.1553 0.344643 11.9883 0.308783 11.8083C0.200854 11.3295 0.372065 10.8021 0.739096 10.4766C1.0105 10.2428 1.29386 10.023 1.56597 9.78996C1.79132 9.59414 1.92421 9.29848 1.92246 9C1.92456 8.70926 1.79871 8.41957 1.58214 8.2248C1.29421 7.97344 0.987651 7.74352 0.702533 7.48898C0.258862 7.07168 0.147416 6.3552 0.443783 5.82328C0.93808 4.95949 1.43835 4.09887 1.93546 3.23684C2.05956 3.01711 2.24097 2.82938 2.46035 2.70352C2.81015 2.49926 3.2489 2.45953 3.62999 2.59699C3.94745 2.71195 4.2621 2.83535 4.57992 2.95066C4.87804 3.05965 5.22363 3.02203 5.49187 2.85258C5.74183 2.69859 5.92042 2.43598 5.97105 2.14664C6.02941 1.82004 6.07933 1.49203 6.13663 1.16543C6.17179 0.963984 6.25019 0.770273 6.36691 0.602578C6.59613 0.264023 6.98003 0.0530859 7.38152 0ZM7.52179 1.4066C7.46027 1.75852 7.40824 2.11184 7.34214 2.46305C7.19343 3.21082 6.66925 3.86824 5.97738 4.18676C5.41066 4.4557 4.73953 4.49402 4.14644 4.28906C3.81738 4.17094 3.49183 4.04262 3.16312 3.92344C2.67058 4.77738 2.17453 5.62957 1.68585 6.48598C1.96007 6.70992 2.23499 6.93352 2.50535 7.16203C3.09843 7.67988 3.40745 8.49621 3.31394 9.27703C3.24785 9.89086 2.93812 10.4727 2.46703 10.8714C2.20757 11.0872 1.94706 11.3013 1.6855 11.5147C2.17523 12.3701 2.67023 13.223 3.16347 14.0766C3.49288 13.957 3.81949 13.8287 4.1496 13.7099C4.74199 13.5053 5.41206 13.5446 5.97808 13.8129C6.48433 14.0484 6.9062 14.4619 7.14808 14.9653C7.39734 15.4723 7.40999 16.0488 7.52179 16.5934C8.50722 16.5938 9.493 16.5941 10.4784 16.5934C10.5396 16.2411 10.5927 15.8875 10.6577 15.5359C10.8114 14.7618 11.3686 14.0864 12.0949 13.7805C12.6543 13.5359 13.3053 13.5144 13.8801 13.7197C14.2001 13.8361 14.5179 13.9581 14.8368 14.0769C15.3289 13.2219 15.8278 12.3704 16.314 11.5123C16.0447 11.295 15.7779 11.0749 15.5132 10.8531C14.945 10.3669 14.6283 9.60961 14.674 8.86395C14.7067 8.2002 15.0241 7.55684 15.5332 7.12934C15.7926 6.91348 16.0532 6.69902 16.3147 6.48562C15.8268 5.62957 15.3293 4.77879 14.8385 3.92414C14.3112 4.09746 13.8074 4.37414 13.2449 4.41316C12.6718 4.45781 12.0868 4.28801 11.6221 3.95086C11.1197 3.59086 10.7632 3.03398 10.6503 2.42613C10.5895 2.08688 10.5371 1.74621 10.4784 1.4066C9.493 1.4059 8.50722 1.4059 7.52179 1.4066Z" fill="#33DA8A"/>
<path d="M8.80035 5.53735C9.57414 5.49059 10.3609 5.71384 10.993 6.16243C11.6782 6.64266 12.1806 7.37778 12.3729 8.19235C12.5631 8.97915 12.4661 9.83134 12.1001 10.5534C11.7278 11.297 11.0806 11.8985 10.31 12.2111C9.54214 12.5271 8.65902 12.5531 7.87503 12.2796C7.03445 11.9945 6.31691 11.3705 5.91296 10.5802C5.53503 9.85103 5.43449 8.98548 5.6275 8.18778C5.83035 7.33313 6.37562 6.56708 7.11355 6.09106C7.61488 5.76376 8.20234 5.57005 8.80035 5.53735ZM8.83867 6.94395C8.20304 6.99212 7.60187 7.35352 7.26191 7.89282C6.95605 8.36849 6.85691 8.97317 7.00562 9.51985C7.13605 10.0279 7.47074 10.4789 7.91828 10.7521C8.38093 11.0414 8.96207 11.1367 9.49152 11.0017C9.9039 10.9011 10.2818 10.6684 10.5582 10.3467C10.8957 9.95931 11.0806 9.44181 11.0609 8.92817C11.0437 8.38677 10.8 7.85767 10.4021 7.49063C9.98793 7.1004 9.40574 6.89684 8.83867 6.94395Z" fill="#33DA8A"/>
</g>
<defs>
<clipPath id="clip0_604_7345">
<rect width="18" height="18" fill="white"/>
</clipPath>
</defs>
</svg>
