<svg width="18" height="19" viewBox="0 0 18 19" fill="none" xmlns="http://www.w3.org/2000/svg">
<path d="M6.366 8.58202C7.30434 10.2305 8.66952 11.5957 10.318 12.534L11.202 11.296C11.3442 11.097 11.5543 10.9569 11.7928 10.9024C12.0313 10.8478 12.2814 10.8826 12.496 11C13.9103 11.7729 15.4722 12.2378 17.079 12.364C17.3298 12.3839 17.5638 12.4976 17.7345 12.6823C17.9052 12.8671 18 13.1095 18 13.361V17.823C18.0001 18.0706 17.9083 18.3094 17.7424 18.4932C17.5765 18.677 17.3483 18.7928 17.102 18.818C16.572 18.873 16.038 18.9 15.5 18.9C6.94 18.9 0 11.96 0 3.40002C0 2.86202 0.027 2.32802 0.082 1.79802C0.107255 1.55172 0.222984 1.32355 0.40679 1.15766C0.590595 0.991772 0.829406 0.899971 1.077 0.900024H5.539C5.79056 0.899993 6.0329 0.994776 6.21768 1.16548C6.40247 1.33617 6.51613 1.57025 6.536 1.82102C6.66222 3.42782 7.12708 4.9897 7.9 6.40402C8.01746 6.61859 8.05221 6.86877 7.99767 7.10722C7.94312 7.34567 7.80306 7.55587 7.604 7.69802L6.366 8.58202ZM3.844 7.92502L5.744 6.56802C5.20478 5.40412 4.83535 4.16887 4.647 2.90002H2.01C2.004 3.06602 2.001 3.23302 2.001 3.40002C2 10.856 8.044 16.9 15.5 16.9C15.667 16.9 15.834 16.897 16 16.89V14.253C14.7312 14.0647 13.4959 13.6952 12.332 13.156L10.975 15.056C10.4287 14.8437 9.89801 14.5931 9.387 14.306L9.329 14.273C7.36758 13.1567 5.74328 11.5324 4.627 9.57102L4.594 9.51302C4.30691 9.00202 4.05628 8.47136 3.844 7.92502Z" fill="#34DB8A"/>
</svg>
